<?xml version="1.0" encoding="UTF-8" standalone="no"?>
<!-- Created with Inkscape (http://www.inkscape.org/) -->

<svg
   xmlns:dc="http://purl.org/dc/elements/1.1/"
   xmlns:cc="http://creativecommons.org/ns#"
   xmlns:rdf="http://www.w3.org/1999/02/22-rdf-syntax-ns#"
   xmlns:svg="http://www.w3.org/2000/svg"
   xmlns="http://www.w3.org/2000/svg"
   xmlns:sodipodi="http://sodipodi.sourceforge.net/DTD/sodipodi-0.dtd"
   xmlns:inkscape="http://www.inkscape.org/namespaces/inkscape"
   id="svg2"
   version="1.1"
   inkscape:version="0.91 r13725"
   xml:space="preserve"
   width="303.32394"
   height="249.60544"
   viewBox="0 0 303.32394 249.60544"
   sodipodi:docname="energylossQGP.svg"><metadata
     id="metadata8"><rdf:RDF><cc:Work
         rdf:about=""><dc:format>image/svg+xml</dc:format><dc:type
           rdf:resource="http://purl.org/dc/dcmitype/StillImage" /><dc:title></dc:title></cc:Work></rdf:RDF></metadata><defs
     id="defs6"><clipPath
       clipPathUnits="userSpaceOnUse"
       id="clipPath562"><path
         d="m 53.972,307.502 245.027,0 0,-201.883 -245.027,0 0,201.883 z"
         id="path564"
         inkscape:connector-curvature="0" /></clipPath><clipPath
       clipPathUnits="userSpaceOnUse"
       id="clipPath584"><path
         d="m 53.972,307.502 245.027,0 0,-201.883 -245.027,0 0,201.883 z"
         id="path586"
         inkscape:connector-curvature="0" /></clipPath><clipPath
       clipPathUnits="userSpaceOnUse"
       id="clipPath620"><path
         d="m 53.972,307.502 245.027,0 0,-201.883 -245.027,0 0,201.883 z"
         id="path622"
         inkscape:connector-curvature="0" /></clipPath><clipPath
       clipPathUnits="userSpaceOnUse"
       id="clipPath844"><path
         d="m 316.97,308.863 245.079,0 0,-203.288 -245.079,0 0,203.288 z"
         id="path846"
         inkscape:connector-curvature="0" /></clipPath></defs><sodipodi:namedview
     pagecolor="#ffffff"
     bordercolor="#666666"
     borderopacity="1"
     objecttolerance="10"
     gridtolerance="10"
     guidetolerance="10"
     inkscape:pageopacity="0"
     inkscape:pageshadow="2"
     inkscape:window-width="1920"
     inkscape:window-height="1029"
     id="namedview4"
     showgrid="false"
     fit-margin-top="0"
     fit-margin-left="0"
     fit-margin-right="0"
     fit-margin-bottom="0"
     inkscape:zoom="0.95353535"
     inkscape:cx="321.21758"
     inkscape:cy="-80.234982"
     inkscape:window-x="0"
     inkscape:window-y="0"
     inkscape:window-maximized="1"
     inkscape:current-layer="g10" /><g
     id="g10"
     inkscape:groupmode="layer"
     inkscape:label="prd71_094016_r11"
     transform="matrix(1.25,0,0,-1.25,-69.672255,382.55356)"><text
       transform="matrix(1,0,0,-1,197.51838,438.1794)"
       style="font-variant:normal;font-size:10.46070004px;font-family:BG-Maths;-inkscape-font-specification:BG-Maths-Symbol;writing-mode:lr-tb;fill:#000000;fill-opacity:1;fill-rule:nonzero;stroke:none"
       id="text30"><tspan
         x="0"
         y="0"
         id="tspan32"></tspan></text>
<text
       transform="matrix(1,0,0,-1,232.611,423.3259)"
       style="font-variant:normal;font-size:10.46070004px;font-family:BG-Maths;-inkscape-font-specification:BG-Maths-Symbol;writing-mode:lr-tb;fill:#000000;fill-opacity:1;fill-rule:nonzero;stroke:none"
       id="text52"><tspan
         x="0"
         y="0"
         id="tspan54"></tspan></text>
<text
       transform="matrix(1,0,0,-1,150.8031,408.9826)"
       style="font-variant:normal;font-size:10.46070004px;font-family:BG-Maths;-inkscape-font-specification:BG-Maths-Symbol;writing-mode:lr-tb;fill:#000000;fill-opacity:1;fill-rule:nonzero;stroke:none"
       id="text102"><tspan
         x="0"
         y="0"
         id="tspan104"></tspan></text>
<text
       transform="matrix(1,0,0,-1,288.33934,408.9826)"
       style="font-variant:normal;font-size:10.46070004px;font-family:BG-Maths;-inkscape-font-specification:BG-Maths-Symbol;writing-mode:lr-tb;fill:#000000;fill-opacity:1;fill-rule:nonzero;stroke:none"
       id="text130"><tspan
         x="0"
         y="0"
         id="tspan132"></tspan></text>
<text
       transform="matrix(1,0,0,-1,372.64212,473.16109)"
       style="font-variant:normal;font-weight:normal;font-size:10.46070004px;font-family:BG-Maths;-inkscape-font-specification:BG-Maths-Roman;writing-mode:lr-tb;fill:#000000;fill-opacity:1;fill-rule:nonzero;stroke:none"
       id="text152"><tspan
         x="0"
         y="0"
         id="tspan154"></tspan></text>
<text
       transform="matrix(1,0,0,-1,400.0251,473.1589)"
       style="font-variant:normal;font-size:10.46070004px;font-family:BG-Maths;-inkscape-font-specification:BG-Maths-Symbol;writing-mode:lr-tb;fill:#000000;fill-opacity:1;fill-rule:nonzero;stroke:none"
       id="text164"><tspan
         x="0"
         y="0"
         id="tspan166"></tspan></text>
<text
       transform="matrix(1,0,0,-1,424.6865,480.3022)"
       style="font-style:italic;font-variant:normal;font-size:10.46070004px;font-family:BG-Maths;-inkscape-font-specification:BG-Maths-Italic;writing-mode:lr-tb;fill:#000000;fill-opacity:1;fill-rule:nonzero;stroke:none"
       id="text178"><tspan
         x="0"
         y="0"
         id="tspan180"></tspan></text>
<text
       transform="matrix(1,0,0,-1,435.5715,480.3022)"
       style="font-style:italic;font-variant:normal;font-size:10.46070004px;font-family:BG-Maths;-inkscape-font-specification:BG-Maths-Italic;writing-mode:lr-tb;fill:#000000;fill-opacity:1;fill-rule:nonzero;stroke:none"
       id="text186"><tspan
         x="0"
         y="0"
         id="tspan188"></tspan></text>
<text
       transform="matrix(1,0,0,-1,435.62857,466.0156)"
       style="font-variant:normal;font-size:10.46070004px;font-family:BG-Maths;-inkscape-font-specification:BG-Maths-Symbol;writing-mode:lr-tb;fill:#000000;fill-opacity:1;fill-rule:nonzero;stroke:none"
       id="text206"><tspan
         x="0"
         y="0"
         id="tspan208"></tspan></text>
<text
       transform="matrix(1,0,0,-1,445.947,466.0156)"
       style="font-variant:normal;font-size:10.46070004px;font-family:BG-Maths;-inkscape-font-specification:BG-Maths-Symbol;writing-mode:lr-tb;fill:#000000;fill-opacity:1;fill-rule:nonzero;stroke:none"
       id="text214"><tspan
         x="0"
         y="0"
         id="tspan216">	</tspan></text>
<text
       transform="matrix(1,0,0,-1,470.32462,486.42547)"
       style="font-variant:normal;font-size:10.46070004px;font-family:BG-Maths;-inkscape-font-specification:BG-Maths-Extension;writing-mode:lr-tb;fill:#000000;fill-opacity:1;fill-rule:nonzero;stroke:none"
       id="text226"><tspan
         x="0"
         y="0"
         id="tspan228"></tspan></text>
<text
       transform="matrix(1,0,0,-1,494.53181,486.42472)"
       style="font-variant:normal;font-size:10.46070004px;font-family:BG-Maths;-inkscape-font-specification:BG-Maths-Extension;writing-mode:lr-tb;fill:#000000;fill-opacity:1;fill-rule:nonzero;stroke:none"
       id="text250"><tspan
         x="0"
         y="0"
         id="tspan252"></tspan></text>
<text
       transform="matrix(1,0,0,-1,551.33864,422.47533)"
       style="font-variant:normal;font-size:10.46070004px;font-family:BG-Maths;-inkscape-font-specification:BG-Maths-Symbol;writing-mode:lr-tb;fill:#000000;fill-opacity:1;fill-rule:nonzero;stroke:none"
       id="text288"><tspan
         x="0"
         y="0"
         id="tspan290"></tspan></text>
<text
       transform="matrix(1,0,0,-1,328.2519,410.5133)"
       style="font-variant:normal;font-size:10.46070004px;font-family:BG-Maths;-inkscape-font-specification:BG-Maths-Symbol;writing-mode:lr-tb;fill:#000000;fill-opacity:1;fill-rule:nonzero;stroke:none"
       id="text300"><tspan
         x="0"
         y="0"
         id="tspan302"></tspan></text>
<text
       transform="matrix(1,0,0,-1,534.61327,398.55149)"
       style="font-variant:normal;font-size:10.46070004px;font-family:BG-Maths;-inkscape-font-specification:BG-Maths-Symbol;writing-mode:lr-tb;fill:#000000;fill-opacity:1;fill-rule:nonzero;stroke:none"
       id="text318"><tspan
         x="0"
         y="0"
         id="tspan320"></tspan></text>
<text
       transform="matrix(1,0,0,-1,544.9317,398.55149)"
       style="font-variant:normal;font-size:10.46070004px;font-family:BG-Maths;-inkscape-font-specification:BG-Maths-Symbol;writing-mode:lr-tb;fill:#000000;fill-opacity:1;fill-rule:nonzero;stroke:none"
       id="text326"><tspan
         x="0 6.4061327"
         y="0"
         sodipodi:role="line"
         id="tspan328">	</tspan></text>
<text
       transform="matrix(1,0,0,-1,330.40471,386.58968)"
       style="font-style:italic;font-variant:normal;font-size:10.46070004px;font-family:BG-Maths;-inkscape-font-specification:BG-Maths-Italic;writing-mode:lr-tb;fill:#000000;fill-opacity:1;fill-rule:nonzero;stroke:none"
       id="text338"><tspan
         x="0"
         y="0"
         id="tspan340"></tspan></text>
<text
       transform="matrix(1,0,0,-1,341.40309,386.58968)"
       style="font-variant:normal;font-size:10.46070004px;font-family:BG-Maths;-inkscape-font-specification:BG-Maths-Symbol;writing-mode:lr-tb;fill:#000000;fill-opacity:1;fill-rule:nonzero;stroke:none"
       id="text342"><tspan
         x="0"
         y="0"
         id="tspan344"></tspan></text>
<text
       transform="matrix(1,0,0,-1,386.41653,386.58968)"
       style="font-style:italic;font-variant:normal;font-size:10.46070004px;font-family:BG-Maths;-inkscape-font-specification:BG-Maths-Italic;writing-mode:lr-tb;fill:#000000;fill-opacity:1;fill-rule:nonzero;stroke:none"
       id="text354"><tspan
         x="0"
         y="0"
         id="tspan356"></tspan></text>
<text
       transform="matrix(1,0,0,-1,400.1952,386.5889)"
       style="font-variant:normal;font-size:10.46070004px;font-family:BG-Maths;-inkscape-font-specification:BG-Maths-Symbol;writing-mode:lr-tb;fill:#000000;fill-opacity:1;fill-rule:nonzero;stroke:none"
       id="text362"><tspan
         x="0"
         y="0"
         id="tspan364"></tspan></text>
<text
       transform="matrix(1,0,0,-1,468.62282,386.5889)"
       style="font-variant:normal;font-size:10.46070004px;font-family:BG-Maths;-inkscape-font-specification:BG-Maths-Symbol;writing-mode:lr-tb;fill:#000000;fill-opacity:1;fill-rule:nonzero;stroke:none"
       id="text386"><tspan
         x="0"
         y="0"
         id="tspan388"></tspan></text>
<text
       transform="matrix(1,0,0,-1,425.70571,374.62709)"
       style="font-variant:normal;font-size:10.46070004px;font-family:BG-Maths;-inkscape-font-specification:BG-Maths-Symbol;writing-mode:lr-tb;fill:#000000;fill-opacity:1;fill-rule:nonzero;stroke:none"
       id="text404"><tspan
         x="0"
         y="0"
         id="tspan406"></tspan></text>
<text
       transform="matrix(1,0,0,-1,436.02414,374.62709)"
       style="font-variant:normal;font-size:10.46070004px;font-family:BG-Maths;-inkscape-font-specification:BG-Maths-Symbol;writing-mode:lr-tb;fill:#000000;fill-opacity:1;fill-rule:nonzero;stroke:none"
       id="text412"><tspan
         x="0 6.4061327"
         y="0"
         sodipodi:role="line"
         id="tspan414">	</tspan></text>
<text
       transform="matrix(1,0,0,-1,551.33662,374.62709)"
       style="font-variant:normal;font-size:10.46070004px;font-family:BG-Maths;-inkscape-font-specification:BG-Maths-Symbol;writing-mode:lr-tb;fill:#000000;fill-opacity:1;fill-rule:nonzero;stroke:none"
       id="text468"><tspan
         x="0"
         y="0"
         id="tspan470"></tspan></text>
<text
       transform="matrix(1,0,0,-1,460.79717,362.66528)"
       style="font-variant:normal;font-size:10.46070004px;font-family:BG-Maths;-inkscape-font-specification:BG-Maths-Symbol;writing-mode:lr-tb;fill:#000000;fill-opacity:1;fill-rule:nonzero;stroke:none"
       id="text500"><tspan
         x="0"
         y="0"
         id="tspan502"></tspan></text>
<text
       transform="matrix(1,0,0,-1,427.74659,326.83634)"
       style="font-variant:normal;font-size:10.46070004px;font-family:BG-Maths;-inkscape-font-specification:BG-Maths-Symbol;writing-mode:lr-tb;fill:#000000;fill-opacity:1;fill-rule:nonzero;stroke:none"
       id="text530"><tspan
         x="0"
         y="0"
         id="tspan532"></tspan></text>
<text
       transform="matrix(1,0,0,-1,483.36195,326.83634)"
       style="font-variant:normal;font-size:10.46070004px;font-family:BG-Maths;-inkscape-font-specification:BG-Maths-Symbol;writing-mode:lr-tb;fill:#000000;fill-opacity:1;fill-rule:nonzero;stroke:none"
       id="text546"><tspan
         x="0"
         y="0"
         id="tspan548"></tspan></text>
<g
       id="g558"><g
         id="g560"
         clip-path="url(#clipPath562)"><path
           d="m 292.825,305.84 0,-2.557 m -42.962,2.557 0,-2.557 m -43.091,2.557 0,-2.557 m -42.964,2.557 0,-2.557 m -42.836,2.557 0,-2.557 m -42.963,2.557 0,-2.557 m 214.816,-176.457 0,2.557 m -42.962,-2.557 0,2.557 m -43.091,-2.557 0,2.557 m -42.964,-2.557 0,2.557 m -42.836,-2.557 0,2.557 m -42.963,-2.557 0,2.557 m 214.816,176.457 0,-1.279 m -21.609,1.279 0,-1.279 m -21.353,1.279 0,-1.279 m -21.61,1.279 0,-1.279 m -21.481,1.279 0,-1.279 m -21.355,1.279 0,-1.279 m -21.609,1.279 0,-1.279 m -21.354,1.279 0,-1.279 m -21.482,1.279 0,-1.279 m -21.609,1.279 0,-1.279 m -21.354,1.279 0,-1.279 m 214.816,-177.735 0,1.279 m -21.609,-1.279 0,1.279 m -21.353,-1.279 0,1.279 m -21.61,-1.279 0,1.279 m -21.481,-1.279 0,1.279 m -21.355,-1.279 0,1.279 m -21.609,-1.279 0,1.279 m -21.354,-1.279 0,1.279 m -21.482,-1.279 0,1.279 m -21.609,-1.279 0,1.279 m -21.354,-1.279 0,1.279"
           style="fill:none;stroke:#000000;stroke-width:0.40000001;stroke-linecap:round;stroke-linejoin:miter;stroke-miterlimit:10;stroke-dasharray:none;stroke-opacity:1"
           id="path566"
           inkscape:connector-curvature="0" /></g></g><text
       transform="matrix(1,0,0,-1,76.0931,117.8734)"
       style="font-variant:normal;font-weight:bold;font-size:7.67199993px;font-family:Times;-inkscape-font-specification:Times-Bold;writing-mode:lr-tb;fill:#000000;fill-opacity:1;fill-rule:nonzero;stroke:none"
       id="text568"><tspan
         x="0 41.0452 44.881199 83.877975 87.713211 126.84041 130.67717 169.9348 173.77156 210.98 214.81599 218.65199"
         y="0"
         sodipodi:role="line"
         id="tspan570">020406080100</tspan></text>
<text
       transform="matrix(1,0,0,-1,171.56347,107.64739)"
       style="font-style:italic;font-variant:normal;font-weight:bold;font-size:7.67199993px;font-family:Times;-inkscape-font-specification:Times-BoldItalic;writing-mode:lr-tb;fill:#000000;fill-opacity:1;fill-rule:nonzero;stroke:none"
       id="text572"><tspan
         x="0"
         y="0"
         id="tspan574">E</tspan></text>
<text
       transform="matrix(1,0,0,-1,178.59946,107.64739)"
       style="font-variant:normal;font-weight:bold;font-size:7.67199993px;font-family:Times;-inkscape-font-specification:Times-Bold;writing-mode:lr-tb;fill:#000000;fill-opacity:1;fill-rule:nonzero;stroke:none"
       id="text576"><tspan
         x="0 2.554776 8.523592 11.92996 17.469145"
         y="0"
         sodipodi:role="line"
         id="tspan578">(GeV)</tspan></text>
<g
       id="g580"><g
         id="g582"
         clip-path="url(#clipPath584)"><path
           d="m 292.825,276.047 -2.557,0 m 2.557,-74.674 -2.557,0 m 2.557,-74.547 -2.557,0 m -212.259,149.221 2.557,0 m -2.557,-74.674 2.557,0 m -2.557,-74.547 2.557,0 m 212.259,179.014 -1.278,0 m 1.278,-14.832 -1.278,0 m 1.278,-14.961 -1.278,0 m 1.278,-14.96 -1.278,0 m 1.278,-14.961 -1.278,0 m 1.278,-14.832 -1.278,0 m 1.278,-14.961 -1.278,0 m 1.278,-14.96 -1.278,0 m 1.278,-14.833 -1.278,0 m 1.278,-14.961 -1.278,0 m 1.278,-14.96 -1.278,0 m 1.278,-14.961 -1.278,0 m 1.278,-14.832 -1.278,0 M 78.009,305.84 l 1.278,0 m -1.278,-14.832 1.278,0 m -1.278,-14.961 1.278,0 m -1.278,-14.96 1.278,0 m -1.278,-14.961 1.278,0 m -1.278,-14.832 1.278,0 m -1.278,-14.961 1.278,0 m -1.278,-14.96 1.278,0 m -1.278,-14.833 1.278,0 m -1.278,-14.961 1.278,0 m -1.278,-14.96 1.278,0 m -1.278,-14.961 1.278,0 m -1.278,-14.832 1.278,0"
           style="fill:none;stroke:#000000;stroke-width:0.40000001;stroke-linecap:round;stroke-linejoin:miter;stroke-miterlimit:10;stroke-dasharray:none;stroke-opacity:1"
           id="path588"
           inkscape:connector-curvature="0" /></g></g><text
       transform="matrix(1,0,0,-1,69.4417,124.2724)"
       style="font-variant:normal;font-weight:bold;font-size:7.67199993px;font-family:Times;-inkscape-font-specification:Times-Bold;writing-mode:lr-tb;fill:#000000;fill-opacity:1;fill-rule:nonzero;stroke:none"
       id="text590"><tspan
         x="0"
         y="0"
         id="tspan592">0</tspan><tspan
         x="0"
         y="-74.541153"
         id="tspan594">5</tspan><tspan
         x="-3.836 0"
         y="-149.2204"
         sodipodi:role="line"
         id="tspan596">10</tspan></text>
<text
       transform="matrix(0,1,1,0,61.2558,200.77705)"
       style="font-variant:normal;font-weight:normal;font-size:7.67199993px;font-family:SymbolMT;-inkscape-font-specification:SymbolMT;writing-mode:lr-tb;fill:#000000;fill-opacity:1;fill-rule:nonzero;stroke:none"
       id="text598"><tspan
         x="0"
         y="0"
         id="tspan600">∆</tspan></text>
<text
       transform="matrix(0,1,1,0,61.2558,205.46618)"
       style="font-style:italic;font-variant:normal;font-weight:bold;font-size:7.67199993px;font-family:Times;-inkscape-font-specification:Times-BoldItalic;writing-mode:lr-tb;fill:#000000;fill-opacity:1;fill-rule:nonzero;stroke:none"
       id="text602"><tspan
         x="0"
         y="0"
         id="tspan604">E</tspan></text>
<text
       transform="matrix(0,1,1,0,61.2558,212.5014)"
       style="font-variant:normal;font-weight:bold;font-size:7.67199993px;font-family:Times;-inkscape-font-specification:Times-Bold;writing-mode:lr-tb;fill:#000000;fill-opacity:1;fill-rule:nonzero;stroke:none"
       id="text606"><tspan
         x="0 2.554776 8.523592 11.92996 17.469145"
         y="0"
         sodipodi:role="line"
         id="tspan608">(GeV)</tspan></text>
<path
       d="m 275.819,197.153 0.767,0 0.128,0.128 1.406,0 0.128,0.128 1.663,0 0.127,0.127 1.408,0 0.128,0.129 1.661,0 0.129,0.128 1.406,0 0.128,0.128 1.662,0 0.128,0.127 1.534,0 0.128,0.128 1.663,0 0.127,0.128 1.534,0 0.128,0.128 1.023,0 m -117.509,-12.404 0,0 0.128,0.128 0.639,0 0.128,0.128 0.767,0 0.128,0.128 0.767,0 0.128,0.128 0.64,0 0,0.128 0.767,0 0.127,0.128 0.768,0 0.127,0.128 0.768,0 0.127,0.128 0.64,0 0,0.128 0.767,0 0.129,0.127 0.766,0 0.128,0.128 0.895,0 0,0.129 0.767,0 0.128,0.127 0.768,0 0.128,0.128 0.766,0 0.128,0.127 0.768,0 0.128,0.128 0.766,0 0.128,0.128 0.896,0 0,0.128 0.767,0 0.128,0.128 0.895,0 0.128,0.128 0.766,0 0.128,0.128 0.768,0 0.128,0.128 0.895,0 0.127,0.128 0.768,0 0.128,0.128 0.895,0 0.128,0.128 0.767,0 0.128,0.128 0.895,0 0.127,0.127 0.896,0 0.128,0.127 0.895,0 0.127,0.129 0.896,0 0,0.128 1.023,0 0.128,0.127 0.767,0 0.128,0.128 1.023,0 0.128,0.128 0.894,0 0.128,0.128 1.024,0 0,0.128 0.894,0 0.128,0.128 1.024,0 0,0.128 1.022,0 0.128,0.128 0.895,0 0.129,0.128 1.15,0 0,0.128 1.022,0 0.129,0.128 0.895,0 0.128,0.127 1.15,0 0.128,0.128 0.896,0 0.127,0.127 1.023,0 0.128,0.128 1.151,0 0,0.128 1.023,0 0.128,0.129 1.022,0 0.129,0.127 1.022,0 0.128,0.128 1.151,0 0.128,0.128 1.023,0 0.128,0.128 1.15,0 0.128,0.128 1.024,0 0.128,0.128 1.022,0 0.128,0.128 1.278,0 0,0.128 1.152,0 0.128,0.127 1.15,0 0.128,0.128 1.15,0 0.128,0.128 1.152,0 0.128,0.128 1.15,0 0.128,0.127 1.151,0 0.128,0.128 1.151,0 0.128,0.128 1.15,0 0.128,0.128 1.278,0 0.128,0.128 1.152,0 0.128,0.128 1.278,0 0.128,0.128 1.151,0 0.128,0.128 1.278,0 0.128,0.128 1.279,0 0.128,0.128 1.278,0 0.129,0.128 1.278,0 0.128,0.127 1.278,0 0.128,0.128 1.407,0 0.128,0.127 1.279,0 0,0.129 1.406,0 0.128,0.128 1.278,0 0.128,0.128 1.406,0 0.129,0.127 1.407,0 0.128,0.128 1.406,0 0,0.128 1.406,0 0.128,0.128 1.407,0 0.128,0.128 1.534,0 0.127,0.128 1.407,0 0,0.128 1.535,0 0.127,0.128 1.406,0 0.128,0.128 1.407,0 0.128,0.127 1.534,0 0.128,0.128 0.767,0 M 80.055,128.105 80.183,129 l 0.128,0.767 0.127,0.767 0.256,1.279 0,0.639 0.128,0.639 0.128,0.513 0.128,0.51 0.127,0.512 0.129,0.512 0,0.511 0.127,0.511 0.128,0.384 0.128,0.512 0.128,0.383 0.128,0.384 0,0.383 0.128,0.384 0.127,0.384 0.256,0.766 0.128,0.256 0,0.384 0.128,0.256 0.128,0.384 0.128,0.255 0.128,0.383 0.128,0.256 0,0.256 0.127,0.384 0.129,0.256 0.127,0.255 0.128,0.255 0.128,0.257 0.128,0.255 0,0.256 0.256,0.512 0.127,0.256 0.256,0.51 0,0.256 0.128,0.129 0.128,0.255 0.256,0.512 0.128,0.128 0,0.255 0.127,0.256 0.128,0.128 0.128,0.255 0.128,0.128 0.128,0.257 0.128,0.255 0,0.128 0.127,0.256 0.129,0.127 0.128,0.256 0.127,0.127 0.128,0.129 0,0.256 0.128,0.128 0.128,0.255 0.256,0.256 0.127,0.256 0,0.128 0.128,0.127 0.128,0.256 0.128,0.128 0.128,0.128 0.128,0.127 0,0.257 0.128,0.128 0.128,0.127 0.127,0.128 0.128,0.128 0.128,0.256 0.128,0.127 0,0.128 0.128,0.128 0.383,0.384 0.128,0.128 0,0.255 0.128,0.128 0.128,0.129 0.128,0.128 0.128,0.127 0.128,0.128 0,0.128 0.128,0.127 0.255,0.256 0.128,0.128 0.128,0.128 0,0.128 0.256,0.256 0.128,0.127 0.127,0.128 0.128,0.128 0.128,0.128 0,0.129 0.128,0.127 0.128,0 0.128,0.127 0.255,0.256 0,0.128 0.128,0.128 0.128,0.128 0.128,0.128 0.128,0.127 0.128,0 0,0.129 0.255,0.256 0.128,0.127 0.128,0.128 0.128,0 0,0.128 0.128,0.128 0.128,0.127 0.128,0.128 0.128,0 0.255,0.256 0,0.128 0.128,0.128 0.128,0 0.128,0.128 0.256,0.256 0.127,0.127 0.128,0.128 0.128,0.129 0.128,0 0.128,0.128 0,0.127 0.128,0.127 0.128,0 0.127,0.128 0.128,0.128 0.128,0 0,0.128 0.128,0.128 0.128,0 0.128,0.128 0.128,0.128 0.128,0.128 0.127,0 0,0.128 0.128,0.128 0.128,0 0.128,0.128 0.128,0.127 0.128,0 0,0.128 0.128,0.128 0.127,0 0.128,0.129 0.128,0 0.128,0.126 0,0.128 0.128,0 0.128,0.128 0.127,0.128 0.128,0 0.128,0.128 0.256,0.256 0.128,0 0.128,0.128 0.128,0 0,0.128 0.128,0.128 0.127,0 0.128,0.128 0.128,0 0.128,0.128 0.128,0.128 0.128,0.127 0.127,0 0.129,0.128 0.127,0 0.128,0.127 0,0.129 0.128,0 0.128,0.127 0.128,0 0.128,0.128 0.127,0 0,0.128 0.129,0 0.127,0.128 0.128,0 0.256,0.256 0.128,0 0,0.128 0.128,0 0.128,0.128 0.127,0 0.129,0.128 0.127,0 0,0.128 0.128,0 0.128,0.128 0.128,0 0.128,0.128 0.128,0 0,0.127 0.127,0 0.128,0.127 0.128,0 0.128,0.128 0.128,0 0,0.128 0.128,0 0.127,0.128 0.129,0 0.127,0.128 0.128,0 0.128,0.128 0.128,0.128 0.128,0 0.128,0.128 0.256,0 0,0.128 0.128,0 0.127,0.128 0.128,0 0.128,0.128 0.128,0 0,0.128 0.128,0 0.128,0.127 0.127,0 0.129,0.128 0.127,0 0.128,0.128 0.128,0 0.128,0.128 0.128,0 0.128,0.127 0.127,0 0.128,0.128 0.128,0 0.128,0.128 0.128,0 0.128,0.128 0.127,0 0.129,0.128 0.127,0 0.128,0.128 0.128,0 0,0.128 0.256,0 0.128,0.128 0.128,0 0.128,0.128 0.127,0 0.128,0.128 0.128,0 0.128,0.128 0.256,0 0,0.128 0.128,0 0.127,0.127 0.256,0 0.128,0.127 0.128,0.128 0.256,0 0.127,0.129 0.128,0 0,0.128 0.256,0 0.128,0.127 0.256,0 0,0.128 0.128,0 0.127,0.128 0.256,0 0.128,0.128 0.128,0 0.128,0.128 0.128,0 0.127,0.128 0.256,0 0,0.128 0.256,0 0.128,0.128 0.255,0 0,0.128 0.128,0 0.128,0.127 0.256,0 0.128,0.128 0.128,0 0.127,0.128 0.256,0 0.128,0.127 0.128,0 0.128,0.128 0.256,0 0.127,0.128 0.128,0 0.128,0.129 0.256,0 0.128,0.128 0.127,0 0.128,0.127 0.256,0 0.128,0.128 0.128,0 0.128,0.128 0.255,0 0.128,0.128 0.256,0 0,0.128 0.256,0 0.128,0.128 0.255,0 0,0.128 0.384,0 0.128,0.127 0.127,0 0.129,0.128 0.255,0 0.128,0.128 0.128,0 0.128,0.128 0.383,0 0.128,0.128 0.128,0 0.128,0.127 0.256,0 0.128,0.128 0.255,0 0.129,0.128 0.255,0 0.128,0.128 0.128,0 0.128,0.128 0.383,0 0,0.128 0.256,0 0.128,0.128 0.255,0 0.129,0.128 0.255,0 0.128,0.128 0.256,0 0.128,0.128 0.255,0 0.129,0.127 0.255,0 0.128,0.128 0.384,0 0,0.128 0.256,0 0.127,0.128 0.384,0 0,0.128 0.383,0 0.128,0.128 0.256,0 0.128,0.128 0.256,0 0.128,0.127 0.255,0 0.128,0.128 0.256,0 0.128,0.128 0.384,0 0.127,0.128 0.256,0 0.128,0.128 0.383,0 0,0.128 0.384,0 0.128,0.128 0.256,0 0.128,0.127 0.383,0 0,0.128 0.384,0 0.128,0.128 0.255,0 0.128,0.128 0.384,0 0.128,0.128 0.383,0 0.128,0.127 0.256,0 0.128,0.128 0.383,0 0,0.129 0.384,0 0.128,0.128 0.383,0 0.128,0.127 0.384,0 0,0.128 0.511,0 0.128,0.128 0.256,0 0.128,0.128 0.255,0 0.128,0.128 0.512,0 0,0.128 0.511,0 0.128,0.127 0.256,0 0.127,0.128 0.384,0 0.128,0.128 0.384,0 0.127,0.128 0.384,0 0.128,0.128 0.384,0 0.127,0.128 0.384,0 0.128,0.128 0.383,0 0.128,0.127 0.384,0 0.128,0.128 0.383,0 0.128,0.129 0.384,0 0.128,0.128 0.511,0 0,0.127 0.512,0 0.127,0.128 0.384,0 0.128,0.128 0.384,0 0.128,0.127 0.383,0 0.128,0.128 0.512,0 0.127,0.128 0.512,0 0,0.128 0.511,0 0.128,0.128 0.384,0 0.128,0.128 0.511,0 0.128,0.128 0.384,0 0.128,0.128 0.511,0 0.128,0.128 0.384,0 0.127,0.128 0.64,0 0,0.127 0.511,0 0.128,0.128 0.512,0 0.128,0.129 0.383,0 0.128,0.128 0.511,0 0.128,0.127 0.512,0 0.128,0.127 0.511,0 0.128,0.128 0.511,0 0.128,0.128 0.511,0 0.128,0.128 0.384,0 0.128,0.128 0.511,0 0.128,0.128 0.639,0 0.128,0.128 0.512,0 0.128,0.128 0.511,0 0.128,0.128 0.511,0 0.128,0.128 0.512,0 0.128,0.128 0.511,0 0.128,0.127 0.639,0 0.128,0.128 0.512,0 0.128,0.128 0.639,0 0.128,0.127 0.511,0 0.128,0.128 0.639,0 0.129,0.128 0.511,0 0.128,0.128 0.639,0 0.128,0.128 0.639,0 0.128,0.128 0.639,0 0.129,0.128 0.511,0 0.128,0.128 0.639,0 0.128,0.128 0.639,0 0.128,0.128 0.64,0 0,0.127 0.639,0 0.128,0.129 0.639,0 0.128,0.128 0.767,0 0.128,0.128 0.639,0 0.128,0.127 0.64,0 0.127,0.127 0.64,0 0.128,0.128 0.639,0"
       style="fill:none;stroke:#000000;stroke-width:0.639;stroke-linecap:round;stroke-linejoin:miter;stroke-miterlimit:10;stroke-dasharray:none;stroke-opacity:1"
       id="path610"
       inkscape:connector-curvature="0" /><path
       d="m 269.171,276.431 0.511,0 0.128,0.128 0.639,0 0.127,0.128 0.64,0 0,0.128 0.768,0 0,0.127 0.638,0 0.128,0.128 0.64,0 0.128,0.128 0.639,0 0.127,0.128 0.64,0 0.128,0.128 0.64,0 0.127,0.128 0.639,0 0.128,0.128 0.64,0 0.127,0.128 0.639,0 0,0.127 0.64,0 0.128,0.128 0.64,0 0.127,0.128 0.639,0 0.128,0.128 0.64,0 0.128,0.128 0.638,0 0.128,0.128 0.768,0 0.128,0.128 0.64,0 0,0.127 0.638,0 0.128,0.128 0.64,0 0.128,0.128 0.767,0 0.128,0.128 0.639,0 0.128,0.128 0.639,0 0.128,0.128 0.767,0 0,0.128 0.64,0 0.128,0.127 0.766,0 0.128,0.128 0.64,0 0.128,0.128 0.767,0 0.128,0.128 0.639,0 0,0.128 0.767,0 m -121.984,-28.131 0.127,0 0.128,0.128 0.128,0 0.128,0.128 0.256,0 0.128,0.128 0.255,0 0.128,0.128 0.256,0 0.128,0.127 0.128,0 0.128,0.128 0.383,0 0.128,0.128 0.128,0 0.128,0.128 0.256,0 0.127,0.128 0.256,0 0.128,0.128 0.256,0 0.128,0.128 0.255,0 0.128,0.128 0.256,0 0,0.127 0.384,0 0.127,0.128 0.128,0 0.128,0.128 0.384,0 0.128,0.128 0.127,0 0.128,0.128 0.384,0 0.128,0.128 0.128,0 0.127,0.128 0.384,0 0,0.128 0.256,0 0.128,0.127 0.256,0 0.127,0.128 0.384,0 0.128,0.128 0.128,0 0.127,0.128 0.384,0 0,0.128 0.256,0 0.128,0.128 0.384,0 0,0.128 0.383,0 0.128,0.127 0.127,0 0.128,0.128 0.384,0 0.128,0.128 0.256,0 0.128,0.128 0.255,0 0.128,0.128 0.257,0 0.127,0.128 0.255,0 0.128,0.128 0.384,0 0.128,0.128 0.128,0 0.128,0.127 0.383,0 0,0.128 0.384,0 0.127,0.128 0.256,0 0.128,0.128 0.384,0 0.128,0.128 0.256,0 0.128,0.128 0.256,0 0,0.128 0.382,0 0.128,0.127 0.256,0 0.128,0.128 0.384,0 0,0.128 0.383,0 0.129,0.128 0.255,0 0.128,0.128 0.383,0 0.128,0.128 0.256,0 0.128,0.128 0.256,0 0.128,0.128 0.383,0 0.127,0.127 0.257,0 0.127,0.128 0.384,0 0,0.128 0.384,0 0.128,0.128 0.256,0 0.128,0.128 0.382,0 0,0.128 0.385,0 0.127,0.128 0.256,0 0.128,0.127 0.384,0 0.128,0.128 0.255,0 0.128,0.128 0.255,0 0.128,0.128 0.512,0 0,0.128 0.384,0 0.128,0.128 0.256,0 0.127,0.128 0.384,0 0.128,0.127 0.255,0 0.128,0.128 0.384,0 0.128,0.128 0.383,0 0,0.128 0.384,0 0.127,0.128 0.257,0 0.128,0.128 0.511,0 0,0.128 0.384,0 0.127,0.127 0.256,0 0.128,0.128 0.383,0 0.129,0.128 0.383,0 0.128,0.128 0.383,0 0.128,0.128 0.256,0 0.128,0.128 0.384,0 0.127,0.128 0.385,0 0.127,0.128 0.256,0 0.127,0.127 0.384,0 0.128,0.128 0.384,0 0.128,0.128 0.383,0 0.128,0.128 0.255,0 0.128,0.128 0.512,0 0,0.128 0.383,0 0.129,0.128 0.383,0 0.128,0.127 0.383,0 0,0.128 0.512,0 0.128,0.128 0.384,0 0.127,0.128 0.257,0 0.128,0.128 0.51,0 0,0.128 0.512,0 0.128,0.128 0.256,0 0.128,0.127 0.384,0 0.127,0.128 0.383,0 0.128,0.128 0.512,0 0,0.128 0.384,0 0.128,0.128 0.382,0 0.128,0.128 0.384,0 0.128,0.128 0.512,0 0,0.128 0.512,0 0.127,0.127 0.255,0 0.128,0.128 0.384,0 0.128,0.128 0.512,0 0,0.128 0.511,0 0.128,0.128 0.383,0 0.128,0.128 0.384,0 0.128,0.128 0.384,0 0.128,0.127 0.511,0 0,0.128 0.511,0 0.128,0.128 0.384,0 0.128,0.128 0.383,0 0.128,0.128 0.383,0 0.128,0.128 0.512,0 0,0.128 0.512,0 0.127,0.127 0.384,0 0.128,0.129 0.511,0 0.128,0.127 0.384,0 0.128,0.128 0.383,0 0.128,0.128 0.512,0 0,0.128 0.511,0 0.128,0.128 0.511,0 0.128,0.127 0.384,0 0.127,0.128 0.385,0 0.128,0.129 0.383,0 0.128,0.127 0.511,0 0.128,0.128 0.511,0 0.128,0.128 0.384,0 0.128,0.128 0.511,0 0.128,0.128 0.384,0 0.128,0.128 0.511,0 0.128,0.127 0.383,0 0.128,0.128 0.512,0 0,0.128 0.64,0 0,0.128 0.51,0 0.129,0.128 0.511,0 0.128,0.128 0.512,0 0.128,0.128 0.382,0 0.128,0.128 0.512,0 0.128,0.127 0.384,0 0.128,0.128 0.511,0 0.128,0.128 0.511,0 0.128,0.128 0.512,0 0,0.128 0.638,0 0,0.128 0.64,0 0.128,0.128 0.384,0 0.128,0.127 0.511,0 0.128,0.128 0.511,0 0.129,0.128 0.511,0 0.128,0.128 0.511,0 0.128,0.128 0.384,0 0.127,0.128 0.512,0 0.128,0.128 0.511,0 0.128,0.128 0.512,0 0.128,0.127 0.511,0 0.128,0.129 0.511,0 0.128,0.127 0.511,0 0.129,0.128 0.639,0 0,0.128 0.639,0 0,0.128 0.639,0 0,0.127 0.64,0 0.128,0.129 0.511,0 0.128,0.127 0.512,0 0.128,0.128 0.512,0 0.127,0.128 0.639,0 0.128,0.128 0.512,0 0.128,0.128 0.511,0 0.128,0.128 0.511,0 0.128,0.127 0.511,0 0.129,0.129 0.638,0 0.128,0.128 0.512,0 0.128,0.127 0.512,0 0.127,0.128 0.639,0 0.128,0.128 0.512,0 0.128,0.128 0.512,0 0.128,0.128 0.638,0 0,0.128 0.64,0 0.128,0.127 0.639,0 0,0.129 0.639,0 0,0.127 0.64,0 0.128,0.128 0.511,0 0.128,0.128 0.639,0 0.128,0.128 0.64,0 0.128,0.128 0.511,0 0.128,0.128 0.639,0 0.128,0.127 0.512,0 0.126,0.128 0.641,0 0.128,0.128 0.639,0 0.128,0.128 0.639,0 0.128,0.128 M 80.055,126.826 l 0.128,2.046 0.128,2.174 0.127,1.918 0.128,1.79 0.128,1.662 0,1.534 0.128,1.407 0.383,3.836 0.129,1.151 0,1.022 0.127,1.152 0.128,0.895 0.128,1.023 0.256,1.79 0,0.895 0.128,0.895 0.127,0.767 0.384,2.302 0,0.768 0.128,0.638 0.128,0.768 0.256,1.278 0.128,0.767 0,0.511 0.127,0.64 0.129,0.64 0.127,0.638 0.128,0.512 0.128,0.64 0.128,0.511 0,0.639 0.639,2.558 0,0.511 0.128,0.511 0.128,0.512 0.128,0.384 0.128,0.512 0.128,0.511 0,0.383 0.127,0.512 0.128,0.384 0.128,0.51 0.128,0.385 0.128,0.383 0.128,0.512 0,0.383 0.127,0.384 0.129,0.383 0.128,0.384 0.127,0.384 0.128,0.383 0,0.384 0.128,0.383 0.256,0.768 0.128,0.383 0.127,0.383 0,0.385 0.128,0.383 0.128,0.256 0.128,0.383 0.128,0.384 0.128,0.256 0,0.384 0.128,0.383 0.128,0.255 0.127,0.384 0.128,0.256 0.128,0.384 0.128,0.255 0,0.385 0.128,0.254 0.128,0.384 0.255,0.512 0.128,0.384 0,0.255 0.128,0.255 0.128,0.384 0.384,0.768 0,0.256 0.128,0.383 0.127,0.255 0.128,0.256 0.128,0.256 0.128,0.256 0,0.256 0.128,0.255 0.128,0.257 0.128,0.255 0.127,0.383 0.128,0.256 0.128,0.256 0,0.256 0.128,0.128 0.128,0.256 0.128,0.254 0.128,0.257 0.127,0.255 0,0.256 0.128,0.256 0.128,0.256 0.128,0.256 0.128,0.255 0.128,0.128 0,0.255 0.128,0.257 0.127,0.255 0.128,0.256 0.128,0.128 0.128,0.256 0,0.255 0.128,0.256 0.128,0.128 0.256,0.511 0.127,0.128 0.128,0.256 0,0.256 0.128,0.128 0.128,0.255 0.128,0.255 0.128,0.129 0.128,0.256 0,0.255 0.127,0.128 0.128,0.256 0.128,0.128 0.128,0.256 0.128,0.128 0,0.255 0.128,0.256 0.128,0.127 0.127,0.257 0.128,0.128 0.128,0.255 0,0.128 0.128,0.256 0.128,0.128 0.128,0.255 0.128,0.128 0.128,0.128 0.127,0.256 0,0.127 0.128,0.256 0.128,0.129 0.128,0.255 0.128,0.128 0.128,0.128 0,0.255 0.128,0.128 0.127,0.256 0.128,0.128 0.128,0.128 0.128,0.256 0,0.127 0.128,0.128 0.128,0.256 0.127,0.128 0.128,0.128 0.128,0.255 0,0.128 0.128,0.128 0.128,0.256 0.128,0.127 0.128,0.129 0.128,0.128 0,0.256 0.128,0.127 0.127,0.128 0.128,0.128 0.128,0.256 0.128,0.127 0.128,0.128 0,0.128 0.128,0.256 0.127,0.128 0.129,0.128 0.127,0.128 0.128,0.128 0,0.255 0.384,0.384 0.128,0.128 0.127,0.255 0,0.128 0.129,0.128 0.127,0.128 0.256,0.256 0.128,0.128 0.128,0.255 0,0.128 0.256,0.256 0.127,0.128 0.129,0.127 0.127,0.129 0,0.127 0.128,0.256 0.128,0.128 0.256,0.256 0.128,0.127 0,0.128 0.127,0.129 0.128,0.127 0.256,0.256 0.128,0.128 0,0.128 0.255,0.255 0.129,0.128 0.127,0.128 0.128,0.128 0.128,0.256 0,0.128 0.128,0.128 0.128,0.127 0.128,0.128 0.127,0.128 0.129,0.128 0,0.128 0.255,0.255 0.128,0.129 0.128,0.127 0.128,0 0,0.128 0.256,0.256 0.127,0.128 0.129,0.128 0.127,0.128 0,0.127 0.128,0.128 0.128,0.128 0.128,0.128 0.128,0.128 0.128,0.128 0,0.128 0.127,0.128 0.128,0.127 0.128,0.128 0.256,0.256 0.128,0 0,0.128 0.127,0.128 0.129,0.128 0.127,0.127 0.128,0.128 0.128,0.128 0,0.128 0.256,0.256 0.128,0 0.128,0.128 0.128,0.127 0,0.128 0.383,0.384 0.128,0 0.128,0.128 0.128,0.128 0,0.128 0.383,0.383 0.128,0 0.128,0.128 0,0.128 0.384,0.383 0.127,0 0.128,0.128 0,0.128 0.384,0.384 0.128,0 0.128,0.128 0,0.127 0.255,0.256 0.128,0 0.128,0.128 0.128,0.128 0.128,0.128 0,0.128 0.128,0 0.128,0.127 0.127,0.128 0.256,0.256 0.128,0.128 0.128,0.128 0.128,0.128 0.128,0 0.127,0.128 0,0.127 0.128,0.128 0.128,0 0.128,0.128 0.128,0.128 0.128,0.128 0.128,0.128 0.127,0.128 0.128,0.127 0.128,0 0.128,0.128 0,0.128 0.128,0.128 0.128,0 0.127,0.128 0.129,0.128 0.127,0.128 0.128,0 0,0.127 0.128,0.128 0.128,0 0.128,0.128 0.128,0.128 0.127,0.128 0.128,0.128 0.128,0.128 0.128,0 0.128,0.128 0.128,0.127 0,0.128 0.128,0 0.127,0.128 0.128,0.128 0.128,0 0.256,0.256 0.128,0.128 0.128,0.127 0.128,0 0.127,0.128 0.384,0.384 0.128,0 0.128,0.128 0.127,0.128 0.129,0.128 0.127,0.127 0.128,0 0.256,0.256 0.128,0.128 0.128,0.128 0.127,0 0.128,0.128 0.128,0.127 0.128,0 0,0.129 0.128,0.127 0.128,0 0.128,0.128 0.128,0.128 0.128,0 0,0.128 0.127,0 0.129,0.128 0.127,0.128 0.128,0 0.128,0.127 0,0.129 0.128,0 0.128,0.127 0.128,0.128 0.127,0 0.128,0.128 0.128,0.128 0.128,0.128 0.128,0 0.128,0.128 0.127,0 0,0.127 0.129,0.128 0.127,0 0.128,0.129 0.128,0 0.128,0.127 0.128,0.128 0.128,0.128 0.127,0 0.128,0.128 0.129,0.128 0.127,0 0,0.128 0.128,0 0.128,0.127 0.128,0.129 0.128,0 0.128,0.127 0.127,0.128 0.129,0.128 0.127,0 0.128,0.128 0.128,0 0.128,0.127 0.128,0.129 0.128,0.127 0.127,0 0.128,0.128 0.128,0 0,0.128 0.128,0 0.128,0.128 0.128,0.128 0.128,0 0.128,0.128 0.127,0.127 0.128,0 0.128,0.129 0.128,0 0.128,0.127 0,0.128 0.128,0 0.128,0.128 0.127,0 0.129,0.128 0.127,0 0,0.128 0.128,0 0.256,0.256 0.128,0 0.128,0.127 0.127,0 0,0.129 0.128,0 0.128,0.127 0.128,0 0.128,0.128 0.128,0 0,0.128 0.128,0 0.128,0.128 0.127,0 0.256,0.256 0.128,0.127 0.128,0 0.128,0.128 0.128,0 0.128,0.128 0.127,0.128 0.128,0 0.128,0.128 0.128,0 0.128,0.128 0.128,0 0,0.128 0.128,0 0.127,0.128 0.128,0 0.128,0.127 0.128,0 0,0.128 0.128,0 0.128,0.128 0.128,0 0.127,0.128 0.128,0 0,0.128 0.128,0 0.128,0.128 0.128,0 0.128,0.127 0.128,0 0.127,0.128 0.128,0.128 0.128,0 0.128,0.128 0.128,0 0.128,0.128 0.127,0.128 0.129,0 0.127,0.128 0.128,0 0.128,0.128 0.128,0.128 0.128,0 0.128,0.127 0.128,0 0.127,0.128 0.128,0.128 0.128,0 0.128,0.128 0.128,0 0.128,0.128 0.127,0 0.128,0.128 0.128,0 0.128,0.128 0.128,0 0.128,0.127 0.128,0.128 0.127,0 0.128,0.128 0.128,0 0.128,0.128 0.128,0.128 0.256,0 0.128,0.128 0.127,0 0,0.128 0.128,0 0.128,0.127 0.128,0 0.128,0.128 0.128,0 0,0.128 0.256,0 0.127,0.128 0.128,0 0.128,0.128 0.128,0 0,0.128 0.128,0 0.128,0.128 0.255,0 0.128,0.127 0.128,0.128 0.128,0 0.128,0.128 0.128,0 0.128,0.128 0.128,0 0.127,0.128 0.128,0 0.128,0.128 0.128,0 0.128,0.128 0.128,0.128 0.256,0 0.127,0.127 0.128,0 0,0.128 0.128,0 0.128,0.128 0.256,0 0.127,0.128 0.129,0.128 0.255,0 0.128,0.128 0.128,0 0,0.128 0.128,0 0.128,0.127 0.255,0 0.129,0.128 0.127,0.128 0.128,0 0.128,0.128 0.256,0 0.255,0.256 0.256,0 0.128,0.128 0.128,0 0,0.127 0.255,0 0.129,0.128 0.127,0 0.128,0.128 0.128,0 0.128,0.128 0.128,0 0.128,0.128 0.128,0 0.128,0.128 0.128,0 0.127,0.128 0.256,0 0.128,0.128 0.128,0.127 0.255,0 0.129,0.128 0.127,0 0,0.128 0.256,0 0.128,0.128 0.128,0 0.128,0.128 0.127,0 0.128,0.128 0.128,0 0.128,0.128 0.256,0 0,0.127 0.128,0 0.128,0.128 0.255,0 0.128,0.128 0.128,0 0.128,0.128 0.128,0 0.128,0.128 0.128,0 0.127,0.128 0.256,0 0.128,0.128 0.128,0 0,0.127 0.256,0 0.127,0.128 0.256,0 0,0.128 0.128,0 0.128,0.128 0.256,0 0.127,0.128 0.128,0 0.128,0.128 0.128,0 0.128,0.128 0.255,0 0,0.128 0.256,0 0.128,0.127 0.256,0 0,0.128 0.128,0 0.127,0.128 0.256,0 0.128,0.128 0.128,0 0.128,0.128 0.255,0 0.128,0.128 0.128,0 0,0.128 0.256,0 0.128,0.128 0.256,0 0,0.127 0.255,0 0.128,0.128 0.256,0 0,0.128 0.256,0 0.127,0.128 0.128,0 0.128,0.128 0.128,0 0.128,0.128 0.256,0 0.127,0.127 0.128,0 0.128,0.128 0.256,0 0.128,0.128 0.128,0 0.128,0.128 0.256,0 0.127,0.128 0.128,0 0.128,0.128 0.256,0 0.128,0.128 0.255,0 0,0.128 0.256,0 0.128,0.128 0.256,0 0,0.127 0.255,0 0.128,0.128 0.256,0 0,0.128 0.256,0 0.127,0.128 0.257,0 0,0.128 0.255,0 0.128,0.128 0.256,0 0,0.128 0.255,0 0.129,0.128 0.255,0 0.128,0.127 0.128,0 0.128,0.128 0.255,0 0.128,0.128 0.128,0 0.128,0.128 0.256,0 0.128,0.128 0.128,0 0.127,0.128 0.384,0 0.128,0.127 0.128,0 0.128,0.129 0.256,0 0.127,0.127 0.128,0 0.128,0.128 0.256,0 0.128,0.128 0.256,0 0.127,0.128 0.256,0 0,0.128 0.256,0 0.128,0.128 0.255,0 0.128,0.128 0.128,0 0.128,0.127 0.384,0 0,0.129 0.255,0 0.128,0.127 0.256,0 0,0.128 0.256,0"
       style="fill:none;stroke:#000000;stroke-width:0.639;stroke-linecap:round;stroke-linejoin:miter;stroke-miterlimit:10;stroke-dasharray:5.115, 2.557;stroke-dashoffset:0;stroke-opacity:1"
       id="path612"
       inkscape:connector-curvature="0" /><path
       d="m 88.878,126.826 1.918,3.964 2.173,3.708 2.174,3.325 2.174,2.813 2.046,2.557 2.174,2.301 4.347,4.093 2.174,1.789 2.174,1.663 2.046,1.534 4.347,2.814 2.173,1.406 2.174,1.15 2.046,1.152 2.174,1.15 2.174,1.151 2.174,1.023 2.046,1.023 6.52,2.685 2.174,0.896 2.174,0.766 2.046,0.768 2.173,0.766 2.174,0.768 2.174,0.767 2.046,0.639 2.174,0.64 2.173,0.767 2.174,0.64 2.174,0.639 2.046,0.511 2.174,0.639 2.174,0.64 2.173,0.511 2.174,0.512 2.174,0.64 2.045,0.511 2.174,0.511 2.174,0.512 2.173,0.511 2.174,0.511 2.046,0.384 2.174,0.512 2.174,0.511 2.174,0.383 2.046,0.512 2.173,0.384 2.174,0.383 2.174,0.512 2.174,0.383 2.046,0.384 2.174,0.384 2.173,0.383 2.174,0.384 2.173,0.383 2.174,0.384 2.046,0.384 2.174,0.384 2.174,0.382 2.173,0.384 2.046,0.256 4.348,0.768 2.174,0.256 2.174,0.382 2.044,0.256 2.174,0.384 2.174,0.256 2.174,0.384 2.174,0.255 2.174,0.384 2.046,0.255 2.173,0.256 2.174,0.384 4.348,0.512 2.046,0.255 2.174,0.384 2.173,0.255 2.174,0.256 2.045,0.256 4.348,0.512 2.174,0.255 2.173,0.256 2.045,0.256 2.174,0.256 2.174,0.255 4.348,0.512 2.173,0.255"
       style="fill:none;stroke:#000000;stroke-width:0.639;stroke-linecap:round;stroke-linejoin:miter;stroke-miterlimit:10;stroke-dasharray:5.115, 2.557, 1.534, 2.557;stroke-dashoffset:0;stroke-opacity:1"
       id="path614"
       inkscape:connector-curvature="0" /><g
       id="g616"><g
         id="g618"
         clip-path="url(#clipPath620)"><path
           d="m 88.878,126.826 1.918,9.078 2.173,8.44 2.174,7.161 2.174,6.52 2.046,5.626 2.174,5.244 2.173,4.73 2.174,4.348 2.174,4.092 2.174,3.708 2.046,3.581 4.347,6.393 2.173,2.941 2.174,2.813 2.046,2.557 2.174,2.557 2.174,2.43 2.174,2.302 2.046,2.301 6.52,6.138 2.174,1.918 2.174,1.79 2.046,1.79 2.173,1.79 2.174,1.663 2.174,1.661 2.046,1.535 4.347,3.069 2.174,1.407 2.174,1.406 2.046,1.406 2.174,1.279 2.174,1.407 2.173,1.278 2.174,1.151 2.174,1.279 2.045,1.151 2.174,1.278 2.174,1.151 2.173,1.023 2.174,1.151 2.046,1.023 2.174,1.151 4.348,2.046 2.046,1.023 2.173,0.895 2.174,1.023 4.348,1.79 2.046,1.022 2.174,0.896 2.173,0.895 2.174,0.767 4.347,1.79 2.046,0.767 2.174,0.895 4.347,1.535 2.046,0.767 8.696,3.068 2.044,0.768 2.174,0.639 2.174,0.767 2.174,0.64 2.174,0.767 2.174,0.639 2.046,0.768 2.173,0.511 2.174,0.767 4.348,1.279 2.046,0.639 2.174,0.64 2.173,0.639 2.174,0.511 2.045,0.64 2.174,0.639 2.174,0.511 4.347,1.279 2.045,0.512 2.174,0.639 2.174,0.511 2.174,0.512 2.174,0.639 2.173,0.639"
           style="fill:none;stroke:#000000;stroke-width:0.639;stroke-linecap:round;stroke-linejoin:miter;stroke-miterlimit:10;stroke-dasharray:0.511, 1.023;stroke-dashoffset:0;stroke-opacity:1"
           id="path624"
           inkscape:connector-curvature="0" /><path
           d="m 78.009,126.826 214.816,0 0,179.014 -214.816,0 0,-179.014 z"
           style="fill:none;stroke:#000000;stroke-width:0.40000001;stroke-linecap:round;stroke-linejoin:miter;stroke-miterlimit:10;stroke-dasharray:none;stroke-opacity:1"
           id="path626"
           inkscape:connector-curvature="0" /></g></g><path
       d="m 84.147,294.076 17.901,0"
       style="fill:none;stroke:#000000;stroke-width:0.639;stroke-linecap:round;stroke-linejoin:miter;stroke-miterlimit:10;stroke-dasharray:none;stroke-opacity:1"
       id="path628"
       inkscape:connector-curvature="0" /><text
       transform="matrix(1,0,0,-1,106.5206,291.5225)"
       style="font-variant:normal;font-weight:bold;font-size:7.67199993px;font-family:Times;-inkscape-font-specification:Times-Bold;writing-mode:lr-tb;fill:#000000;fill-opacity:1;fill-rule:nonzero;stroke:none"
       id="text630"><tspan
         x="0 5.9688158 10.234448 14.070448 17.476816 21.742449 23.660448 26.215223 29.621592 33.457592 35.590408 37.723225 39.641224 42.195999"
         y="0"
         sodipodi:role="line"
         id="tspan632">Quark (coll.) </tspan></text>
<text
       transform="matrix(1,0,0,-1,150.63383,291.5225)"
       style="font-style:italic;font-variant:normal;font-weight:bold;font-size:7.67199993px;font-family:Times;-inkscape-font-specification:Times-BoldItalic;writing-mode:lr-tb;fill:#000000;fill-opacity:1;fill-rule:nonzero;stroke:none"
       id="text634"><tspan
         x="0"
         y="0"
         id="tspan636">L</tspan></text>
<text
       transform="matrix(1,0,0,-1,155.32142,291.5225)"
       style="font-variant:normal;font-weight:bold;font-size:7.67199993px;font-family:Times;-inkscape-font-specification:Times-Bold;writing-mode:lr-tb;fill:#000000;fill-opacity:1;fill-rule:nonzero;stroke:none"
       id="text638"><tspan
         x="0 4.3730402 8.2090397 10.12704 12.681816"
         y="0"
         sodipodi:role="line"
         id="tspan640">=2 fm</tspan></text>
<path
       d="m 84.147,284.614 17.901,0"
       style="fill:none;stroke:#000000;stroke-width:0.639;stroke-linecap:round;stroke-linejoin:miter;stroke-miterlimit:10;stroke-dasharray:5.115, 2.557;stroke-dashoffset:0;stroke-opacity:1"
       id="path642"
       inkscape:connector-curvature="0" /><text
       transform="matrix(1,0,0,-1,106.5206,282.0552)"
       style="font-variant:normal;font-weight:bold;font-size:7.67199993px;font-family:Times;-inkscape-font-specification:Times-Bold;writing-mode:lr-tb;fill:#000000;fill-opacity:1;fill-rule:nonzero;stroke:none"
       id="text644"><tspan
         x="0 5.9688158 8.1016321 12.367264 16.203264 20.468897 22.386896 24.941671 28.34804 32.18404 34.316856 36.449673 38.367672 40.922447"
         y="0"
         sodipodi:role="line"
         id="tspan646">Gluon (coll.) </tspan></text>
<text
       transform="matrix(1,0,0,-1,149.36028,282.0552)"
       style="font-style:italic;font-variant:normal;font-weight:bold;font-size:7.67199993px;font-family:Times;-inkscape-font-specification:Times-BoldItalic;writing-mode:lr-tb;fill:#000000;fill-opacity:1;fill-rule:nonzero;stroke:none"
       id="text648"><tspan
         x="0"
         y="0"
         id="tspan650">L</tspan></text>
<text
       transform="matrix(1,0,0,-1,154.04787,282.0552)"
       style="font-variant:normal;font-weight:bold;font-size:7.67199993px;font-family:Times;-inkscape-font-specification:Times-Bold;writing-mode:lr-tb;fill:#000000;fill-opacity:1;fill-rule:nonzero;stroke:none"
       id="text652"><tspan
         x="0 4.3730402 8.2090397 10.12704 12.681816"
         y="0"
         sodipodi:role="line"
         id="tspan654">=2 fm</tspan></text>
<path
       d="m 84.147,275.152 17.901,0"
       style="fill:none;stroke:#000000;stroke-width:0.639;stroke-linecap:round;stroke-linejoin:miter;stroke-miterlimit:10;stroke-dasharray:5.115, 2.557, 1.534, 2.557;stroke-dashoffset:0;stroke-opacity:1"
       id="path656"
       inkscape:connector-curvature="0" /><text
       transform="matrix(1,0,0,-1,106.5206,272.5959)"
       style="font-variant:normal;font-weight:bold;font-size:7.67199993px;font-family:Times;-inkscape-font-specification:Times-Bold;writing-mode:lr-tb;fill:#000000;fill-opacity:1;fill-rule:nonzero;stroke:none"
       id="text658"><tspan
         x="0 5.9688158 10.234448 14.070448 17.476816 21.742449 23.660448 26.215223 29.621592 33.457592 37.723225 39.641224 42.195999"
         y="0"
         sodipodi:role="line"
         id="tspan660">Quark (rad.) </tspan></text>
<text
       transform="matrix(1,0,0,-1,150.63383,272.5959)"
       style="font-style:italic;font-variant:normal;font-weight:bold;font-size:7.67199993px;font-family:Times;-inkscape-font-specification:Times-BoldItalic;writing-mode:lr-tb;fill:#000000;fill-opacity:1;fill-rule:nonzero;stroke:none"
       id="text662"><tspan
         x="0"
         y="0"
         id="tspan664">L</tspan></text>
<text
       transform="matrix(1,0,0,-1,155.32142,272.5959)"
       style="font-variant:normal;font-weight:bold;font-size:7.67199993px;font-family:Times;-inkscape-font-specification:Times-Bold;writing-mode:lr-tb;fill:#000000;fill-opacity:1;fill-rule:nonzero;stroke:none"
       id="text666"><tspan
         x="0 4.3730402 8.2090397 10.12704 12.681816"
         y="0"
         sodipodi:role="line"
         id="tspan668">=2 fm</tspan></text>
<path
       d="m 84.147,265.69 17.901,0"
       style="fill:none;stroke:#000000;stroke-width:0.639;stroke-linecap:round;stroke-linejoin:miter;stroke-miterlimit:10;stroke-dasharray:0.511, 1.023;stroke-dashoffset:0;stroke-opacity:1"
       id="path670"
       inkscape:connector-curvature="0" /><text
       transform="matrix(1,0,0,-1,106.5206,263.1364)"
       style="font-variant:normal;font-weight:bold;font-size:7.67199993px;font-family:Times;-inkscape-font-specification:Times-Bold;writing-mode:lr-tb;fill:#000000;fill-opacity:1;fill-rule:nonzero;stroke:none"
       id="text672"><tspan
         x="0 5.9688158 8.1016321 12.367264 16.203264 20.468897 22.386896 24.941671 28.34804 32.18404 36.449673 38.367672 40.922447"
         y="0"
         sodipodi:role="line"
         id="tspan674">Gluon (rad.) </tspan></text>
<text
       transform="matrix(1,0,0,-1,149.36028,263.1364)"
       style="font-style:italic;font-variant:normal;font-weight:bold;font-size:7.67199993px;font-family:Times;-inkscape-font-specification:Times-BoldItalic;writing-mode:lr-tb;fill:#000000;fill-opacity:1;fill-rule:nonzero;stroke:none"
       id="text676"><tspan
         x="0"
         y="0"
         id="tspan678">L</tspan></text>
<text
       transform="matrix(1,0,0,-1,154.04787,263.1364)"
       style="font-variant:normal;font-weight:bold;font-size:7.67199993px;font-family:Times;-inkscape-font-specification:Times-Bold;writing-mode:lr-tb;fill:#000000;fill-opacity:1;fill-rule:nonzero;stroke:none"
       id="text680"><tspan
         x="0 4.3730402 6.2910399 10.12704 12.04504 14.599816"
         y="0"
         sodipodi:role="line"
         id="tspan682">= 2 fm</tspan></text>
<text
       transform="matrix(1,0,0,-1,467.77368,511.70979)"
       style="font-variant:normal;font-size:9.46459961px;font-family:BG-Maths;-inkscape-font-specification:BG-Maths-Symbol;writing-mode:lr-tb;fill:#000000;fill-opacity:1;fill-rule:nonzero;stroke:none"
       id="text764"><tspan
         x="0"
         y="0"
         id="tspan766"></tspan></text>
<text
       transform="matrix(1,0,0,-1,510.40603,511.70979)"
       style="font-variant:normal;font-size:9.46459961px;font-family:BG-Maths;-inkscape-font-specification:BG-Maths-Symbol;writing-mode:lr-tb;fill:#000000;fill-opacity:1;fill-rule:nonzero;stroke:none"
       id="text780"><tspan
         x="0"
         y="0"
         id="tspan782"></tspan></text>
<text
       transform="matrix(1,0,0,-1,510.40586,75.741376)"
       style="font-variant:normal;font-size:9.46459961px;font-family:BG-Maths;-inkscape-font-specification:BG-Maths-Symbol;writing-mode:lr-tb;fill:#000000;fill-opacity:1;fill-rule:nonzero;stroke:none"
       id="text888"><tspan
         x="0"
         y="0"
         id="tspan890"></tspan></text>
<text
       transform="matrix(1,0,0,-1,190.09209,502.92206)"
       style="font-variant:normal;font-size:9.46459961px;font-family:BG-Maths;-inkscape-font-specification:BG-Maths-Symbol;writing-mode:lr-tb;fill:#000000;fill-opacity:1;fill-rule:nonzero;stroke:none"
       id="text1054"><tspan
         x="0"
         y="0"
         id="tspan1056"></tspan></text>
<text
       transform="matrix(1,0,0,-1,194.68432,502.97885)"
       style="font-variant:normal;font-weight:normal;font-size:9.46459961px;font-family:BG-Maths;-inkscape-font-specification:BG-Maths-Roman;writing-mode:lr-tb;fill:#000000;fill-opacity:1;fill-rule:nonzero;stroke:none"
       id="text1058"><tspan
         x="0"
         y="0"
         id="tspan1060"></tspan></text>
<text
       transform="matrix(1,0,0,-1,226.26295,502.92206)"
       style="font-variant:normal;font-size:9.46459961px;font-family:BG-Maths;-inkscape-font-specification:BG-Maths-Symbol;writing-mode:lr-tb;fill:#000000;fill-opacity:1;fill-rule:nonzero;stroke:none"
       id="text1074"><tspan
         x="0"
         y="0"
         id="tspan1076"></tspan></text>
<text
       transform="matrix(1,0,0,-1,230.91196,502.97885)"
       style="font-variant:normal;font-weight:normal;font-size:9.46459961px;font-family:BG-Maths;-inkscape-font-specification:BG-Maths-Roman;writing-mode:lr-tb;fill:#000000;fill-opacity:1;fill-rule:nonzero;stroke:none"
       id="text1078"><tspan
         x="0"
         y="0"
         id="tspan1080"></tspan></text>
<text
       transform="matrix(1,0,0,-1,234.65427,502.92206)"
       style="font-variant:normal;font-size:9.46459961px;font-family:BG-Maths;-inkscape-font-specification:BG-Maths-Symbol;writing-mode:lr-tb;fill:#000000;fill-opacity:1;fill-rule:nonzero;stroke:none"
       id="text1086"><tspan
         x="0"
         y="0"
         id="tspan1088">	</tspan></text>
</g></svg>