<?xml version="1.0" encoding="UTF-8" standalone="no"?>
<!-- Created with Inkscape (http://www.inkscape.org/) -->

<svg
   xmlns:dc="http://purl.org/dc/elements/1.1/"
   xmlns:cc="http://creativecommons.org/ns#"
   xmlns:rdf="http://www.w3.org/1999/02/22-rdf-syntax-ns#"
   xmlns:svg="http://www.w3.org/2000/svg"
   xmlns="http://www.w3.org/2000/svg"
   xmlns:sodipodi="http://sodipodi.sourceforge.net/DTD/sodipodi-0.dtd"
   xmlns:inkscape="http://www.inkscape.org/namespaces/inkscape"
   id="svg2"
   version="1.1"
   inkscape:version="0.91 r13725"
   xml:space="preserve"
   width="671.94049"
   height="669.00702"
   viewBox="0 0 671.94049 669.00702"
   sodipodi:docname="PbPb_signal_exa_8pt10.svg"><metadata
     id="metadata8"><rdf:RDF><cc:Work
         rdf:about=""><dc:format>image/svg+xml</dc:format><dc:type
           rdf:resource="http://purl.org/dc/dcmitype/StillImage" /><dc:title></dc:title></cc:Work></rdf:RDF></metadata><defs
     id="defs6"><clipPath
       clipPathUnits="userSpaceOnUse"
       id="clipPath36"><path
         d="m 0,0 566.929,0 0,544.1 L 0,544.1 0,0 Z"
         id="path38"
         inkscape:connector-curvature="0" /></clipPath><clipPath
       clipPathUnits="userSpaceOnUse"
       id="clipPath94"><path
         d="m 0,0 566.929,0 0,544.1 L 0,544.1 0,0 Z"
         id="path96"
         inkscape:connector-curvature="0" /></clipPath><clipPath
       clipPathUnits="userSpaceOnUse"
       id="clipPath108"><path
         d="m 0,0 566.929,0 0,544.1 L 0,544.1 0,0 Z"
         id="path110"
         inkscape:connector-curvature="0" /></clipPath><clipPath
       clipPathUnits="userSpaceOnUse"
       id="clipPath122"><path
         d="m 0,0 566.929,0 0,544.1 L 0,544.1 0,0 Z"
         id="path124"
         inkscape:connector-curvature="0" /></clipPath><clipPath
       clipPathUnits="userSpaceOnUse"
       id="clipPath136"><path
         d="m 0,0 566.929,0 0,544.1 L 0,544.1 0,0 Z"
         id="path138"
         inkscape:connector-curvature="0" /></clipPath><clipPath
       clipPathUnits="userSpaceOnUse"
       id="clipPath150"><path
         d="m 0,0 566.929,0 0,544.1 L 0,544.1 0,0 Z"
         id="path152"
         inkscape:connector-curvature="0" /></clipPath><clipPath
       clipPathUnits="userSpaceOnUse"
       id="clipPath166"><path
         d="m 0,0 566.929,0 0,544.1 L 0,544.1 0,0 Z"
         id="path168"
         inkscape:connector-curvature="0" /></clipPath><clipPath
       clipPathUnits="userSpaceOnUse"
       id="clipPath204"><path
         d="m 0,0 566.929,0 0,544.1 L 0,544.1 0,0 Z"
         id="path206"
         inkscape:connector-curvature="0" /></clipPath><clipPath
       clipPathUnits="userSpaceOnUse"
       id="clipPath218"><path
         d="m 0,0 566.929,0 0,544.1 L 0,544.1 0,0 Z"
         id="path220"
         inkscape:connector-curvature="0" /></clipPath><clipPath
       clipPathUnits="userSpaceOnUse"
       id="clipPath232"><path
         d="m 0,0 566.929,0 0,544.1 L 0,544.1 0,0 Z"
         id="path234"
         inkscape:connector-curvature="0" /></clipPath><clipPath
       clipPathUnits="userSpaceOnUse"
       id="clipPath246"><path
         d="m 0,0 566.929,0 0,544.1 L 0,544.1 0,0 Z"
         id="path248"
         inkscape:connector-curvature="0" /></clipPath><clipPath
       clipPathUnits="userSpaceOnUse"
       id="clipPath260"><path
         d="m 0,0 566.929,0 0,544.1 L 0,544.1 0,0 Z"
         id="path262"
         inkscape:connector-curvature="0" /></clipPath><clipPath
       clipPathUnits="userSpaceOnUse"
       id="clipPath274"><path
         d="m 0,0 566.929,0 0,544.1 L 0,544.1 0,0 Z"
         id="path276"
         inkscape:connector-curvature="0" /></clipPath><clipPath
       clipPathUnits="userSpaceOnUse"
       id="clipPath290"><path
         d="m 0,0 566.929,0 0,544.1 L 0,544.1 0,0 Z"
         id="path292"
         inkscape:connector-curvature="0" /></clipPath><clipPath
       clipPathUnits="userSpaceOnUse"
       id="clipPath304"><path
         d="m 0,0 566.929,0 0,544.1 L 0,544.1 0,0 Z"
         id="path306"
         inkscape:connector-curvature="0" /></clipPath><clipPath
       clipPathUnits="userSpaceOnUse"
       id="clipPath318"><path
         d="m 0,0 566.929,0 0,544.1 L 0,544.1 0,0 Z"
         id="path320"
         inkscape:connector-curvature="0" /></clipPath><clipPath
       clipPathUnits="userSpaceOnUse"
       id="clipPath332"><path
         d="m 0,0 566.929,0 0,544.1 L 0,544.1 0,0 Z"
         id="path334"
         inkscape:connector-curvature="0" /></clipPath><clipPath
       clipPathUnits="userSpaceOnUse"
       id="clipPath346"><path
         d="m 0,0 566.929,0 0,544.1 L 0,544.1 0,0 Z"
         id="path348"
         inkscape:connector-curvature="0" /></clipPath><clipPath
       clipPathUnits="userSpaceOnUse"
       id="clipPath360"><path
         d="m 0,0 566.929,0 0,544.1 L 0,544.1 0,0 Z"
         id="path362"
         inkscape:connector-curvature="0" /></clipPath><clipPath
       clipPathUnits="userSpaceOnUse"
       id="clipPath374"><path
         d="m 0,0 566.929,0 0,544.1 L 0,544.1 0,0 Z"
         id="path376"
         inkscape:connector-curvature="0" /></clipPath><clipPath
       clipPathUnits="userSpaceOnUse"
       id="clipPath388"><path
         d="m 0,0 566.929,0 0,544.1 L 0,544.1 0,0 Z"
         id="path390"
         inkscape:connector-curvature="0" /></clipPath><clipPath
       clipPathUnits="userSpaceOnUse"
       id="clipPath402"><path
         d="m 0,0 566.929,0 0,544.1 L 0,544.1 0,0 Z"
         id="path404"
         inkscape:connector-curvature="0" /></clipPath><clipPath
       clipPathUnits="userSpaceOnUse"
       id="clipPath416"><path
         d="m 0,0 566.929,0 0,544.1 L 0,544.1 0,0 Z"
         id="path418"
         inkscape:connector-curvature="0" /></clipPath></defs><sodipodi:namedview
     pagecolor="#ffffff"
     bordercolor="#666666"
     borderopacity="1"
     objecttolerance="10"
     gridtolerance="10"
     guidetolerance="10"
     inkscape:pageopacity="0"
     inkscape:pageshadow="2"
     inkscape:window-width="1920"
     inkscape:window-height="1029"
     id="namedview4"
     showgrid="false"
     fit-margin-top="0"
     fit-margin-left="0"
     fit-margin-right="0"
     fit-margin-bottom="0"
     inkscape:zoom="0.98163059"
     inkscape:cx="479.86773"
     inkscape:cy="336.10473"
     inkscape:window-x="0"
     inkscape:window-y="0"
     inkscape:window-maximized="1"
     inkscape:current-layer="g10" /><g
     id="g10"
     inkscape:groupmode="layer"
     inkscape:label="PbPb_signal_exa_8pt10"
     transform="matrix(1.25,0,0,-1.25,-17.023366,672.90228)"><g
       id="g16"><path
         d="m 68.0315,54.41 470.551,0 0,462.485 -470.551,0 0,-462.485 z"
         style="fill:#ffffff;fill-opacity:1;fill-rule:evenodd;stroke:#ffffff;stroke-width:0.002;stroke-linecap:butt;stroke-linejoin:miter;stroke-miterlimit:10;stroke-dasharray:none;stroke-opacity:1"
         id="path18"
         inkscape:connector-curvature="0" /></g><path
       d="m 68.0315,54.41 470.551,0 0,462.485 -470.551,0 0,-462.485 z"
       style="fill:none;stroke:#000000;stroke-width:1.5;stroke-linecap:butt;stroke-linejoin:miter;stroke-miterlimit:10;stroke-dasharray:none;stroke-opacity:1"
       id="path20"
       inkscape:connector-curvature="0" /><path
       d="m 68.0315,54.41 470.551,0 0,462.485 -470.551,0 0,-462.485 z"
       style="fill:none;stroke:#000000;stroke-width:1.5;stroke-linecap:butt;stroke-linejoin:miter;stroke-miterlimit:10;stroke-dasharray:none;stroke-opacity:1"
       id="path26"
       inkscape:connector-curvature="0" /><path
       d="m 68.9827,55.3612 0,0.8346 10.8126,0 0,3.5631 11.7638,0 0,3.8185 11.7639,0 0,4.2684 11.764,0 0,4.0576 11.763,0 0,4.8091 11.764,0 0,5.0002 11.764,0 0,5.3498 11.764,0 0,6.271 11.764,0 0,9.1355 11.763,0 0,13.723 11.764,0 0,18.917 11.764,0 0,23.769 11.764,0 0,24.748 11.763,0 0,17.655 11.764,0 0,6.828 11.764,0 0,-5.005 11.764,0 0,-10.367 11.764,0 0,-10.531 11.763,0 0,-6.053 11.764,0 0,-0.167 11.764,0 0,5.37 11.764,0 0,7.483 11.763,0 0,7.786 11.764,0 0,8.308 11.764,0 0,8.505 11.764,0 0,9.332 11.764,0 0,9.342 11.763,0 0,9.748 11.764,0 0,9.739 11.764,0 0,9.983 11.764,0 0,9.977 11.763,0 0,10.983 11.764,0 0,10.51 11.764,0 0,12.36 11.764,0 0,10.995 11.764,0 0,10.356 11.763,0 0,11.705 11.764,0 0,12.557 11.764,0 0,11.708 11.764,0"
       style="fill:none;stroke:#000099;stroke-width:0.75;stroke-linecap:butt;stroke-linejoin:miter;stroke-miterlimit:10;stroke-dasharray:none;stroke-opacity:1"
       id="path28"
       inkscape:connector-curvature="0" /><path
       d="m 68.0315,54.41 470.5515,0"
       style="fill:none;stroke:#000000;stroke-width:1.5;stroke-linecap:butt;stroke-linejoin:miter;stroke-miterlimit:10;stroke-dasharray:none;stroke-opacity:1"
       id="path30"
       inkscape:connector-curvature="0" /><g
       id="g32"><g
         id="g34"
         clip-path="url(#clipPath36)"><g
           id="g40"
           transform="translate(435.66,8.56101)"><text
             transform="matrix(1,0,0,-1,7.139874,0)"
             style="font-variant:normal;font-weight:normal;font-size:25.68300056px;font-family:Helvetica;-inkscape-font-specification:Helvetica;writing-mode:lr-tb;fill:#000000;fill-opacity:1;fill-rule:nonzero;stroke:none"
             id="text42"><tspan
               x="0 21.393938 28.533813 37.08625 57.067627 71.347374 88.477936"
               y="0"
               sodipodi:role="line"
               id="tspan44">m (GeV)</tspan></text>
</g></g></g><path
       d="m 68.0315,67.9581 0,-13.5481"
       style="fill:none;stroke:#000000;stroke-width:1.5;stroke-linecap:butt;stroke-linejoin:miter;stroke-miterlimit:10;stroke-dasharray:none;stroke-opacity:1"
       id="path46"
       inkscape:connector-curvature="0" /><path
       d="m 91.5591,61.184 0,-6.774"
       style="fill:none;stroke:#000000;stroke-width:1.5;stroke-linecap:butt;stroke-linejoin:miter;stroke-miterlimit:10;stroke-dasharray:none;stroke-opacity:1"
       id="path48"
       inkscape:connector-curvature="0" /><path
       d="m 115.087,61.184 0,-6.774"
       style="fill:none;stroke:#000000;stroke-width:1.5;stroke-linecap:butt;stroke-linejoin:miter;stroke-miterlimit:10;stroke-dasharray:none;stroke-opacity:1"
       id="path50"
       inkscape:connector-curvature="0" /><path
       d="m 138.614,61.184 0,-6.774"
       style="fill:none;stroke:#000000;stroke-width:1.5;stroke-linecap:butt;stroke-linejoin:miter;stroke-miterlimit:10;stroke-dasharray:none;stroke-opacity:1"
       id="path52"
       inkscape:connector-curvature="0" /><path
       d="m 162.142,61.184 0,-6.774"
       style="fill:none;stroke:#000000;stroke-width:1.5;stroke-linecap:butt;stroke-linejoin:miter;stroke-miterlimit:10;stroke-dasharray:none;stroke-opacity:1"
       id="path54"
       inkscape:connector-curvature="0" /><path
       d="m 185.669,67.9581 0,-13.5481"
       style="fill:none;stroke:#000000;stroke-width:1.5;stroke-linecap:butt;stroke-linejoin:miter;stroke-miterlimit:10;stroke-dasharray:none;stroke-opacity:1"
       id="path56"
       inkscape:connector-curvature="0" /><path
       d="m 209.197,61.184 0,-6.774"
       style="fill:none;stroke:#000000;stroke-width:1.5;stroke-linecap:butt;stroke-linejoin:miter;stroke-miterlimit:10;stroke-dasharray:none;stroke-opacity:1"
       id="path58"
       inkscape:connector-curvature="0" /><path
       d="m 232.724,61.184 0,-6.774"
       style="fill:none;stroke:#000000;stroke-width:1.5;stroke-linecap:butt;stroke-linejoin:miter;stroke-miterlimit:10;stroke-dasharray:none;stroke-opacity:1"
       id="path60"
       inkscape:connector-curvature="0" /><path
       d="m 256.252,61.184 0,-6.774"
       style="fill:none;stroke:#000000;stroke-width:1.5;stroke-linecap:butt;stroke-linejoin:miter;stroke-miterlimit:10;stroke-dasharray:none;stroke-opacity:1"
       id="path62"
       inkscape:connector-curvature="0" /><path
       d="m 279.78,61.184 0,-6.774"
       style="fill:none;stroke:#000000;stroke-width:1.5;stroke-linecap:butt;stroke-linejoin:miter;stroke-miterlimit:10;stroke-dasharray:none;stroke-opacity:1"
       id="path64"
       inkscape:connector-curvature="0" /><path
       d="m 303.307,67.9581 0,-13.5481"
       style="fill:none;stroke:#000000;stroke-width:1.5;stroke-linecap:butt;stroke-linejoin:miter;stroke-miterlimit:10;stroke-dasharray:none;stroke-opacity:1"
       id="path66"
       inkscape:connector-curvature="0" /><path
       d="m 326.835,61.184 0,-6.774"
       style="fill:none;stroke:#000000;stroke-width:1.5;stroke-linecap:butt;stroke-linejoin:miter;stroke-miterlimit:10;stroke-dasharray:none;stroke-opacity:1"
       id="path68"
       inkscape:connector-curvature="0" /><path
       d="m 350.362,61.184 0,-6.774"
       style="fill:none;stroke:#000000;stroke-width:1.5;stroke-linecap:butt;stroke-linejoin:miter;stroke-miterlimit:10;stroke-dasharray:none;stroke-opacity:1"
       id="path70"
       inkscape:connector-curvature="0" /><path
       d="m 373.89,61.184 0,-6.774"
       style="fill:none;stroke:#000000;stroke-width:1.5;stroke-linecap:butt;stroke-linejoin:miter;stroke-miterlimit:10;stroke-dasharray:none;stroke-opacity:1"
       id="path72"
       inkscape:connector-curvature="0" /><path
       d="m 397.417,61.184 0,-6.774"
       style="fill:none;stroke:#000000;stroke-width:1.5;stroke-linecap:butt;stroke-linejoin:miter;stroke-miterlimit:10;stroke-dasharray:none;stroke-opacity:1"
       id="path74"
       inkscape:connector-curvature="0" /><path
       d="m 420.945,67.9581 0,-13.5481"
       style="fill:none;stroke:#000000;stroke-width:1.5;stroke-linecap:butt;stroke-linejoin:miter;stroke-miterlimit:10;stroke-dasharray:none;stroke-opacity:1"
       id="path76"
       inkscape:connector-curvature="0" /><path
       d="m 444.472,61.184 0,-6.774"
       style="fill:none;stroke:#000000;stroke-width:1.5;stroke-linecap:butt;stroke-linejoin:miter;stroke-miterlimit:10;stroke-dasharray:none;stroke-opacity:1"
       id="path78"
       inkscape:connector-curvature="0" /><path
       d="m 468,61.184 0,-6.774"
       style="fill:none;stroke:#000000;stroke-width:1.5;stroke-linecap:butt;stroke-linejoin:miter;stroke-miterlimit:10;stroke-dasharray:none;stroke-opacity:1"
       id="path80"
       inkscape:connector-curvature="0" /><path
       d="m 491.528,61.184 0,-6.774"
       style="fill:none;stroke:#000000;stroke-width:1.5;stroke-linecap:butt;stroke-linejoin:miter;stroke-miterlimit:10;stroke-dasharray:none;stroke-opacity:1"
       id="path82"
       inkscape:connector-curvature="0" /><path
       d="m 515.055,61.184 0,-6.774"
       style="fill:none;stroke:#000000;stroke-width:1.5;stroke-linecap:butt;stroke-linejoin:miter;stroke-miterlimit:10;stroke-dasharray:none;stroke-opacity:1"
       id="path84"
       inkscape:connector-curvature="0" /><path
       d="m 538.583,67.9581 0,-13.5481"
       style="fill:none;stroke:#000000;stroke-width:1.5;stroke-linecap:butt;stroke-linejoin:miter;stroke-miterlimit:10;stroke-dasharray:none;stroke-opacity:1"
       id="path86"
       inkscape:connector-curvature="0" /><path
       d="m 538.583,67.9581 0,-13.5481"
       style="fill:none;stroke:#000000;stroke-width:1.5;stroke-linecap:butt;stroke-linejoin:miter;stroke-miterlimit:10;stroke-dasharray:none;stroke-opacity:1"
       id="path88"
       inkscape:connector-curvature="0" /><g
       id="g90"><g
         id="g92"
         clip-path="url(#clipPath94)"><g
           id="g98"
           transform="translate(61.8295,35.1953)"><text
             transform="scale(1,-1)"
             style="font-variant:normal;font-weight:normal;font-size:19.97570038px;font-family:Helvetica;-inkscape-font-specification:Helvetica;writing-mode:lr-tb;fill:#000000;fill-opacity:1;fill-rule:nonzero;stroke:none"
             id="text100"><tspan
               x="0"
               y="0"
               id="tspan102">0</tspan></text>
</g></g></g><g
       id="g104"><g
         id="g106"
         clip-path="url(#clipPath108)"><g
           id="g112"
           transform="translate(173.123,35.1953)"><text
             transform="scale(1,-1)"
             style="font-variant:normal;font-weight:normal;font-size:19.97570038px;font-family:Helvetica;-inkscape-font-specification:Helvetica;writing-mode:lr-tb;fill:#000000;fill-opacity:1;fill-rule:nonzero;stroke:none"
             id="text114"><tspan
               x="0 11.106489 16.659735"
               y="0"
               sodipodi:role="line"
               id="tspan116">0.1</tspan></text>
</g></g></g><g
       id="g118"><g
         id="g120"
         clip-path="url(#clipPath122)"><g
           id="g126"
           transform="translate(288.221,35.1953)"><text
             transform="scale(1,-1)"
             style="font-variant:normal;font-weight:normal;font-size:19.97570038px;font-family:Helvetica;-inkscape-font-specification:Helvetica;writing-mode:lr-tb;fill:#000000;fill-opacity:1;fill-rule:nonzero;stroke:none"
             id="text128"><tspan
               x="0 11.106489 16.659735"
               y="0"
               sodipodi:role="line"
               id="tspan130">0.2</tspan></text>
</g></g></g><g
       id="g132"><g
         id="g134"
         clip-path="url(#clipPath136)"><g
           id="g140"
           transform="translate(406.172,35.1953)"><text
             transform="scale(1,-1)"
             style="font-variant:normal;font-weight:normal;font-size:19.97570038px;font-family:Helvetica;-inkscape-font-specification:Helvetica;writing-mode:lr-tb;fill:#000000;fill-opacity:1;fill-rule:nonzero;stroke:none"
             id="text142"><tspan
               x="0 11.106489 16.659735"
               y="0"
               sodipodi:role="line"
               id="tspan144">0.3</tspan></text>
</g></g></g><g
       id="g146"><g
         id="g148"
         clip-path="url(#clipPath150)"><g
           id="g154"
           transform="translate(524.124,35.1953)"><text
             transform="scale(1,-1)"
             style="font-variant:normal;font-weight:normal;font-size:19.97570038px;font-family:Helvetica;-inkscape-font-specification:Helvetica;writing-mode:lr-tb;fill:#000000;fill-opacity:1;fill-rule:nonzero;stroke:none"
             id="text156"><tspan
               x="0 11.106489 16.659735"
               y="0"
               sodipodi:role="line"
               id="tspan158">0.4</tspan></text>
</g></g></g><path
       d="m 68.0315,54.41 0,462.485"
       style="fill:none;stroke:#000000;stroke-width:1.5;stroke-linecap:butt;stroke-linejoin:miter;stroke-miterlimit:10;stroke-dasharray:none;stroke-opacity:1"
       id="path160"
       inkscape:connector-curvature="0" /><g
       id="g162"><g
         id="g164"
         clip-path="url(#clipPath166)"><g
           id="g170"
           transform="matrix(0,1,-1,0,32.3416,500.344)"><text
             transform="scale(1,-1)"
             style="font-variant:normal;font-weight:normal;font-size:25.68300056px;font-family:Helvetica;-inkscape-font-specification:Helvetica;writing-mode:lr-tb;fill:#000000;fill-opacity:1;fill-rule:nonzero;stroke:none"
             id="text172"><tspan
               x="0"
               y="0"
               id="tspan174">N</tspan></text>
</g></g></g><path
       d="m 82.4882,54.41 -14.4567,0"
       style="fill:none;stroke:#000000;stroke-width:1.5;stroke-linecap:butt;stroke-linejoin:miter;stroke-miterlimit:10;stroke-dasharray:none;stroke-opacity:1"
       id="path176"
       inkscape:connector-curvature="0" /><path
       d="m 75.2598,97.2566 -7.2283,0"
       style="fill:none;stroke:#000000;stroke-width:1.5;stroke-linecap:butt;stroke-linejoin:miter;stroke-miterlimit:10;stroke-dasharray:none;stroke-opacity:1"
       id="path178"
       inkscape:connector-curvature="0" /><path
       d="m 75.2598,140.103 -7.2283,0"
       style="fill:none;stroke:#000000;stroke-width:1.5;stroke-linecap:butt;stroke-linejoin:miter;stroke-miterlimit:10;stroke-dasharray:none;stroke-opacity:1"
       id="path180"
       inkscape:connector-curvature="0" /><path
       d="m 75.2598,182.95 -7.2283,0"
       style="fill:none;stroke:#000000;stroke-width:1.5;stroke-linecap:butt;stroke-linejoin:miter;stroke-miterlimit:10;stroke-dasharray:none;stroke-opacity:1"
       id="path182"
       inkscape:connector-curvature="0" /><path
       d="m 82.4882,225.796 -14.4567,0"
       style="fill:none;stroke:#000000;stroke-width:1.5;stroke-linecap:butt;stroke-linejoin:miter;stroke-miterlimit:10;stroke-dasharray:none;stroke-opacity:1"
       id="path184"
       inkscape:connector-curvature="0" /><path
       d="m 75.2598,268.643 -7.2283,0"
       style="fill:none;stroke:#000000;stroke-width:1.5;stroke-linecap:butt;stroke-linejoin:miter;stroke-miterlimit:10;stroke-dasharray:none;stroke-opacity:1"
       id="path186"
       inkscape:connector-curvature="0" /><path
       d="m 75.2598,311.49 -7.2283,0"
       style="fill:none;stroke:#000000;stroke-width:1.5;stroke-linecap:butt;stroke-linejoin:miter;stroke-miterlimit:10;stroke-dasharray:none;stroke-opacity:1"
       id="path188"
       inkscape:connector-curvature="0" /><path
       d="m 75.2598,354.336 -7.2283,0"
       style="fill:none;stroke:#000000;stroke-width:1.5;stroke-linecap:butt;stroke-linejoin:miter;stroke-miterlimit:10;stroke-dasharray:none;stroke-opacity:1"
       id="path190"
       inkscape:connector-curvature="0" /><path
       d="m 82.4882,397.183 -14.4567,0"
       style="fill:none;stroke:#000000;stroke-width:1.5;stroke-linecap:butt;stroke-linejoin:miter;stroke-miterlimit:10;stroke-dasharray:none;stroke-opacity:1"
       id="path192"
       inkscape:connector-curvature="0" /><path
       d="m 82.4882,397.183 -14.4567,0"
       style="fill:none;stroke:#000000;stroke-width:1.5;stroke-linecap:butt;stroke-linejoin:miter;stroke-miterlimit:10;stroke-dasharray:none;stroke-opacity:1"
       id="path194"
       inkscape:connector-curvature="0" /><path
       d="m 75.2598,440.029 -7.2283,0"
       style="fill:none;stroke:#000000;stroke-width:1.5;stroke-linecap:butt;stroke-linejoin:miter;stroke-miterlimit:10;stroke-dasharray:none;stroke-opacity:1"
       id="path196"
       inkscape:connector-curvature="0" /><path
       d="m 75.2598,482.876 -7.2283,0"
       style="fill:none;stroke:#000000;stroke-width:1.5;stroke-linecap:butt;stroke-linejoin:miter;stroke-miterlimit:10;stroke-dasharray:none;stroke-opacity:1"
       id="path198"
       inkscape:connector-curvature="0" /><g
       id="g200"><g
         id="g202"
         clip-path="url(#clipPath204)"><g
           id="g208"
           transform="translate(54.2197,47.5612)"><text
             transform="scale(1,-1)"
             style="font-variant:normal;font-weight:normal;font-size:19.97570038px;font-family:Helvetica;-inkscape-font-specification:Helvetica;writing-mode:lr-tb;fill:#000000;fill-opacity:1;fill-rule:nonzero;stroke:none"
             id="text210"><tspan
               x="0"
               y="0"
               id="tspan212">0</tspan></text>
</g></g></g><g
       id="g214"><g
         id="g216"
         clip-path="url(#clipPath218)"><g
           id="g222"
           transform="translate(32.3416,218.781)"><text
             transform="scale(1,-1)"
             style="font-variant:normal;font-weight:normal;font-size:19.97570038px;font-family:Helvetica;-inkscape-font-specification:Helvetica;writing-mode:lr-tb;fill:#000000;fill-opacity:1;fill-rule:nonzero;stroke:none"
             id="text224"><tspan
               x="0 11.106489 22.212978"
               y="0"
               sodipodi:role="line"
               id="tspan226">200</tspan></text>
</g></g></g><g
       id="g228"><g
         id="g230"
         clip-path="url(#clipPath232)"><g
           id="g236"
           transform="translate(32.3416,390.002)"><text
             transform="scale(1,-1)"
             style="font-variant:normal;font-weight:normal;font-size:19.97570038px;font-family:Helvetica;-inkscape-font-specification:Helvetica;writing-mode:lr-tb;fill:#000000;fill-opacity:1;fill-rule:nonzero;stroke:none"
             id="text238"><tspan
               x="0 11.106489 22.212978"
               y="0"
               sodipodi:role="line"
               id="tspan240">400</tspan></text>
</g></g></g><g
       id="g242"><g
         id="g244"
         clip-path="url(#clipPath246)"><g
           id="g250"
           transform="translate(100.83,528.88)"><text
             transform="scale(1,-1)"
             style="font-variant:normal;font-weight:normal;font-size:13.31709957px;font-family:Helvetica;-inkscape-font-specification:Helvetica;writing-mode:lr-tb;fill:#000000;fill-opacity:1;fill-rule:nonzero;stroke:none"
             id="text252"><tspan
               x="0"
               y="0"
               id="tspan254">3</tspan></text>
</g></g></g><g
       id="g256"><g
         id="g258"
         clip-path="url(#clipPath260)"><g
           id="g264"
           transform="translate(78.9515,519.368)"><text
             transform="scale(1,-1)"
             style="font-variant:normal;font-weight:normal;font-size:19.97570038px;font-family:Helvetica;-inkscape-font-specification:Helvetica;writing-mode:lr-tb;fill:#000000;fill-opacity:1;fill-rule:nonzero;stroke:none"
             id="text266"><tspan
               x="0 11.106489"
               y="0"
               sodipodi:role="line"
               id="tspan268">10</tspan></text>
</g></g></g><g
       id="g270"><g
         id="g272"
         clip-path="url(#clipPath274)"><g
           id="g278"
           transform="translate(67.5369,519.368)"><text
             transform="scale(1,-1)"
             style="font-variant:normal;font-weight:normal;font-size:19.97570038px;font-family:Symbol;-inkscape-font-specification:Symbol;writing-mode:lr-tb;fill:#000000;fill-opacity:1;fill-rule:nonzero;stroke:none"
             id="text280"><tspan
               x="0"
               y="0"
               id="tspan282">×</tspan></text>
</g></g></g><path
       d="m 68.9827,55.3612 0,0.8346 10.8126,0 0,3.5631 11.7638,0 0,3.8185 11.7639,0 0,4.2676 11.764,0 0,4.049 11.763,0 0,4.7859 11.764,0 0,4.8563 11.764,0 0,4.9565 11.764,0 0,4.8099 11.764,0 0,5.4192 11.763,0 0,5.8962 11.764,0 0,5.688 11.764,0 0,6.086 11.764,0 0,6.282 11.763,0 0,6.393 11.764,0 0,6.623 11.764,0 0,6.874 11.764,0 0,7.596 11.764,0 0,7.489 11.763,0 0,7.206 11.764,0 0,7.355 11.764,0 0,9.1 11.764,0 0,8.882 11.763,0 0,8.276 11.764,0 0,8.434 11.764,0 0,8.535 11.764,0 0,9.333 11.764,0 0,9.342 11.763,0 0,9.748 11.764,0 0,9.739 11.764,0 0,9.983 11.764,0 0,9.977 11.763,0 0,10.983 11.764,0 0,10.51 11.764,0 0,12.36 11.764,0 0,10.995 11.764,0 0,10.356 11.763,0 0,11.705 11.764,0 0,12.557 11.764,0 0,11.708 11.764,0"
       style="fill:none;stroke:#000099;stroke-width:0.75;stroke-linecap:butt;stroke-linejoin:miter;stroke-miterlimit:10;stroke-dasharray:3, 3;stroke-dashoffset:0;stroke-opacity:1"
       id="path284"
       inkscape:connector-curvature="0" /><g
       id="g286"><g
         id="g288"
         clip-path="url(#clipPath290)"><g
           id="g294"
           transform="translate(113.196,468.002)"><text
             transform="scale(1,-1)"
             style="font-variant:normal;font-weight:normal;font-size:25.68300056px;font-family:Helvetica;-inkscape-font-specification:Helvetica;writing-mode:lr-tb;fill:#000000;fill-opacity:1;fill-rule:nonzero;stroke:none"
             id="text296"><tspan
               x="0 17.130562 31.410309 38.550182 57.093307 74.223869 81.363747 98.494308 104.19593 125.58987 139.86961 145.57124 159.851 166.99086 172.69249 186.97224"
               y="0"
               sodipodi:role="line"
               id="tspan298">ALICE Simulation</tspan></text>
</g></g></g><g
       id="g300"><g
         id="g302"
         clip-path="url(#clipPath304)"><g
           id="g308"
           transform="translate(113.196,435.66)"><text
             transform="scale(1,-1)"
             style="font-variant:normal;font-weight:normal;font-size:25.68300056px;font-family:Helvetica;-inkscape-font-specification:Helvetica;writing-mode:lr-tb;fill:#000000;fill-opacity:1;fill-rule:nonzero;stroke:none"
             id="text310"><tspan
               x="0 17.130562 31.410309 48.540871 62.820618 69.960495 84.240242 92.792679 107.07243 121.35217"
               y="0"
               sodipodi:role="line"
               id="tspan312">PbPb 0-10%</tspan></text>
</g></g></g><g
       id="g314"><g
         id="g316"
         clip-path="url(#clipPath318)"><g
           id="g322"
           transform="translate(113.196,403.319)"><text
             transform="scale(1,-1)"
             style="font-variant:normal;font-weight:normal;font-size:25.68300056px;font-family:Helvetica;-inkscape-font-specification:Helvetica;writing-mode:lr-tb;fill:#000000;fill-opacity:1;fill-rule:nonzero;stroke:none"
             id="text324"><tspan
               x="0 14.279748 28.559496 49.953434 57.093307 71.373055 84.214554 98.494308 112.77406 119.91393"
               y="0"
               sodipodi:role="line"
               id="tspan326">10M events</tspan></text>
</g></g></g><g
       id="g328"><g
         id="g330"
         clip-path="url(#clipPath332)"><g
           id="g336"
           transform="translate(193.098,370.026)"><text
             transform="matrix(1,0,0,-1,7.139874,0)"
             style="font-variant:normal;font-weight:normal;font-size:25.68300056px;font-family:Helvetica;-inkscape-font-specification:Helvetica;writing-mode:lr-tb;fill:#000000;fill-opacity:1;fill-rule:nonzero;stroke:none"
             id="text338"><tspan
               x="0 14.998872 22.138746 36.418495 43.558369"
               y="0"
               sodipodi:role="line"
               id="tspan340">&lt; 4.5</tspan></text>
</g></g></g><g
       id="g342"><g
         id="g344"
         clip-path="url(#clipPath346)"><g
           id="g350"
           transform="translate(178.83,370.026)"><text
             transform="scale(1,-1)"
             style="font-variant:normal;font-weight:normal;font-size:25.68300056px;font-family:Symbol;-inkscape-font-specification:Symbol;writing-mode:lr-tb;fill:#000000;fill-opacity:1;fill-rule:nonzero;stroke:none"
             id="text352"><tspan
               x="0"
               y="0"
               id="tspan354">η</tspan></text>
</g></g></g><g
       id="g356"><g
         id="g358"
         clip-path="url(#clipPath360)"><g
           id="g364"
           transform="translate(113.196,370.026)"><text
             transform="scale(1,-1)"
             style="font-variant:normal;font-weight:normal;font-size:25.68300056px;font-family:Helvetica;-inkscape-font-specification:Helvetica;writing-mode:lr-tb;fill:#000000;fill-opacity:1;fill-rule:nonzero;stroke:none"
             id="text366"><tspan
               x="0 14.279748 21.419622 35.699371 42.839245 57.838116"
               y="0"
               sodipodi:role="line"
               id="tspan368">3.5 &lt; </tspan></text>
</g></g></g><g
       id="g370"><g
         id="g372"
         clip-path="url(#clipPath374)"><g
           id="g378"
           transform="translate(348.148,337.684)"><text
             transform="scale(1,-1)"
             style="font-style:oblique;font-variant:normal;font-size:25.68300056px;font-family:Helvetica;-inkscape-font-specification:Helvetica-Oblique;writing-mode:lr-tb;fill:#000000;fill-opacity:1;fill-rule:nonzero;stroke:none"
             id="text380"><tspan
               x="0"
               y="0"
               id="tspan382">c</tspan></text>
</g></g></g><g
       id="g384"><g
         id="g386"
         clip-path="url(#clipPath388)"><g
           id="g392"
           transform="translate(202.611,337.684)"><text
             transform="matrix(1,0,0,-1,7.139874,0)"
             style="font-variant:normal;font-weight:normal;font-size:25.68300056px;font-family:Helvetica;-inkscape-font-specification:Helvetica;writing-mode:lr-tb;fill:#000000;fill-opacity:1;fill-rule:nonzero;stroke:none"
             id="text394"><tspan
               x="0 14.998872 22.138746 36.418495 50.698242 57.838116 72.117867 79.257736 99.239113 113.51886 130.64941"
               y="0"
               sodipodi:role="line"
               id="tspan396">&lt; 10.0 GeV/</tspan></text>
</g></g></g><g
       id="g398"><g
         id="g400"
         clip-path="url(#clipPath402)"><g
           id="g406"
           transform="translate(192.147,324.367)"><text
             transform="scale(1,-1)"
             style="font-variant:normal;font-weight:normal;font-size:17.12199974px;font-family:Helvetica;-inkscape-font-specification:Helvetica;writing-mode:lr-tb;fill:#000000;fill-opacity:1;fill-rule:nonzero;stroke:none"
             id="text408"><tspan
               x="0"
               y="0"
               id="tspan410">T</tspan></text>
</g></g></g><g
       id="g412"><g
         id="g414"
         clip-path="url(#clipPath416)"><g
           id="g420"
           transform="translate(113.196,337.684)"><text
             transform="scale(1,-1)"
             style="font-variant:normal;font-weight:normal;font-size:25.68300056px;font-family:Helvetica;-inkscape-font-specification:Helvetica;writing-mode:lr-tb;fill:#000000;fill-opacity:1;fill-rule:nonzero;stroke:none"
             id="text422"><tspan
               x="0 14.279748 21.419622 35.699371 42.839245 57.838116 64.977989"
               y="0"
               sodipodi:role="line"
               id="tspan424">8.0 &lt; p</tspan></text>
</g></g></g></g></svg>