<?xml version="1.0" encoding="UTF-8" standalone="no"?>
<!-- Created with Inkscape (http://www.inkscape.org/) -->

<svg
   xmlns:dc="http://purl.org/dc/elements/1.1/"
   xmlns:cc="http://creativecommons.org/ns#"
   xmlns:rdf="http://www.w3.org/1999/02/22-rdf-syntax-ns#"
   xmlns:svg="http://www.w3.org/2000/svg"
   xmlns="http://www.w3.org/2000/svg"
   xmlns:sodipodi="http://sodipodi.sourceforge.net/DTD/sodipodi-0.dtd"
   xmlns:inkscape="http://www.inkscape.org/namespaces/inkscape"
   width="309.1741"
   height="237.06976"
   id="svg5205"
   version="1.1"
   inkscape:version="0.48.1 r9760"
   sodipodi:docname="2Nucleicolliding.svg">
  <defs
     id="defs5207">
    <marker
       inkscape:stockid="Arrow1Mend"
       orient="auto"
       refY="0"
       refX="0"
       id="Arrow1Mend"
       style="overflow:visible">
      <path
         id="path4329"
         d="M 0,0 5,-5 -12.5,0 5,5 0,0 z"
         style="fill-rule:evenodd;stroke:#000000;stroke-width:1pt;marker-start:none"
         transform="matrix(-0.4,0,0,-0.4,-4,0)"
         inkscape:connector-curvature="0" />
    </marker>
    <marker
       inkscape:stockid="Arrow1Mstart"
       orient="auto"
       refY="0"
       refX="0"
       id="Arrow1Mstart"
       style="overflow:visible">
      <path
         id="path4326"
         d="M 0,0 5,-5 -12.5,0 5,5 0,0 z"
         style="fill-rule:evenodd;stroke:#000000;stroke-width:1pt;marker-start:none"
         transform="matrix(0.4,0,0,0.4,4,0)"
         inkscape:connector-curvature="0" />
    </marker>
    <marker
       inkscape:stockid="Arrow1Lend"
       orient="auto"
       refY="0"
       refX="0"
       id="Arrow1Lend"
       style="overflow:visible">
      <path
         id="path4323"
         d="M 0,0 5,-5 -12.5,0 5,5 0,0 z"
         style="fill-rule:evenodd;stroke:#000000;stroke-width:1pt;marker-start:none"
         transform="matrix(-0.8,0,0,-0.8,-10,0)"
         inkscape:connector-curvature="0" />
    </marker>
    <marker
       inkscape:stockid="Arrow1Lstart"
       orient="auto"
       refY="0"
       refX="0"
       id="Arrow1Lstart"
       style="overflow:visible">
      <path
         id="path4320"
         d="M 0,0 5,-5 -12.5,0 5,5 0,0 z"
         style="fill-rule:evenodd;stroke:#000000;stroke-width:1pt;marker-start:none"
         transform="matrix(0.8,0,0,0.8,10,0)"
         inkscape:connector-curvature="0" />
    </marker>
  </defs>
  <sodipodi:namedview
     id="base"
     pagecolor="#ffffff"
     bordercolor="#666666"
     borderopacity="1.0"
     inkscape:pageopacity="0.0"
     inkscape:pageshadow="2"
     inkscape:zoom="1.4"
     inkscape:cx="56.058871"
     inkscape:cy="41.668898"
     inkscape:document-units="px"
     inkscape:current-layer="layer1"
     showgrid="true"
     inkscape:window-width="1600"
     inkscape:window-height="829"
     inkscape:window-x="0"
     inkscape:window-y="24"
     inkscape:window-maximized="1"
     fit-margin-top="0"
     fit-margin-left="0"
     fit-margin-right="0"
     fit-margin-bottom="0">
    <inkscape:grid
       type="xygrid"
       id="grid5213"
       empspacing="5"
       visible="true"
       enabled="true"
       snapvisiblegridlinesonly="true" />
  </sodipodi:namedview>
  <metadata
     id="metadata5210">
    <rdf:RDF>
      <cc:Work
         rdf:about="">
        <dc:format>image/svg+xml</dc:format>
        <dc:type
           rdf:resource="http://purl.org/dc/dcmitype/StillImage" />
        <dc:title />
      </cc:Work>
    </rdf:RDF>
  </metadata>
  <g
     inkscape:label="Ebene 1"
     inkscape:groupmode="layer"
     id="layer1"
     transform="translate(-3.9411278,-145.02402)">
    <path
       sodipodi:type="arc"
       style="opacity:0.98000004;fill:#0044aa;fill-opacity:1;fill-rule:nonzero;stroke:#0044aa;stroke-width:1.5;stroke-miterlimit:4;stroke-opacity:1;stroke-dasharray:none;stroke-dashoffset:0"
       id="path5215"
       sodipodi:cx="130"
       sodipodi:cy="212.36218"
       sodipodi:rx="10"
       sodipodi:ry="10"
       d="m 140,212.36218 c 0,5.52285 -4.47715,10 -10,10 -5.52285,0 -10,-4.47715 -10,-10 0,-5.52284 4.47715,-10 10,-10 5.52285,0 10,4.47716 10,10 z" />
    <path
       transform="translate(-40,60)"
       sodipodi:type="arc"
       style="opacity:0.98000004;fill:#0044aa;fill-opacity:1;fill-rule:nonzero;stroke:#0044aa;stroke-width:1.5;stroke-miterlimit:4;stroke-opacity:1;stroke-dasharray:none;stroke-dashoffset:0"
       id="path5215-5"
       sodipodi:cx="130"
       sodipodi:cy="212.36218"
       sodipodi:rx="10"
       sodipodi:ry="10"
       d="m 140,212.36218 c 0,5.52285 -4.47715,10 -10,10 -5.52285,0 -10,-4.47715 -10,-10 0,-5.52284 4.47715,-10 10,-10 5.52285,0 10,4.47716 10,10 z" />
    <path
       transform="translate(10,50)"
       sodipodi:type="arc"
       style="opacity:0.98000004;fill:#0044aa;fill-opacity:1;fill-rule:nonzero;stroke:#0044aa;stroke-width:1.5;stroke-miterlimit:4;stroke-opacity:1;stroke-dasharray:none;stroke-dashoffset:0"
       id="path5215-0"
       sodipodi:cx="130"
       sodipodi:cy="212.36218"
       sodipodi:rx="10"
       sodipodi:ry="10"
       d="m 140,212.36218 c 0,5.52285 -4.47715,10 -10,10 -5.52285,0 -10,-4.47715 -10,-10 0,-5.52284 4.47715,-10 10,-10 5.52285,0 10,4.47716 10,10 z" />
    <path
       transform="translate(-20,40)"
       sodipodi:type="arc"
       style="opacity:0.98000004;fill:#0044aa;fill-opacity:1;fill-rule:nonzero;stroke:#0044aa;stroke-width:1.5;stroke-miterlimit:4;stroke-opacity:1;stroke-dasharray:none;stroke-dashoffset:0"
       id="path5215-2"
       sodipodi:cx="130"
       sodipodi:cy="212.36218"
       sodipodi:rx="10"
       sodipodi:ry="10"
       d="m 140,212.36218 c 0,5.52285 -4.47715,10 -10,10 -5.52285,0 -10,-4.47715 -10,-10 0,-5.52284 4.47715,-10 10,-10 5.52285,0 10,4.47716 10,10 z" />
    <path
       transform="translate(-40,10)"
       sodipodi:type="arc"
       style="opacity:0.98000004;fill:#ac9393;fill-opacity:1;fill-rule:nonzero;stroke:#ac9393;stroke-width:1.5;stroke-miterlimit:4;stroke-opacity:1;stroke-dasharray:none;stroke-dashoffset:0"
       id="path5215-9"
       sodipodi:cx="130"
       sodipodi:cy="212.36218"
       sodipodi:rx="10"
       sodipodi:ry="10"
       d="m 140,212.36218 c 0,5.52285 -4.47715,10 -10,10 -5.52285,0 -10,-4.47715 -10,-10 0,-5.52284 4.47715,-10 10,-10 5.52285,0 10,4.47716 10,10 z" />
    <path
       transform="translate(-50,40)"
       sodipodi:type="arc"
       style="opacity:0.98000004;fill:#0044aa;fill-opacity:1;fill-rule:nonzero;stroke:#0044aa;stroke-width:1.5;stroke-miterlimit:4;stroke-opacity:1;stroke-dasharray:none;stroke-dashoffset:0"
       id="path5215-7"
       sodipodi:cx="130"
       sodipodi:cy="212.36218"
       sodipodi:rx="10"
       sodipodi:ry="10"
       d="m 140,212.36218 c 0,5.52285 -4.47715,10 -10,10 -5.52285,0 -10,-4.47715 -10,-10 0,-5.52284 4.47715,-10 10,-10 5.52285,0 10,4.47716 10,10 z" />
    <path
       transform="translate(-20,80)"
       sodipodi:type="arc"
       style="opacity:0.98000004;fill:#c8b7b7;fill-opacity:1;fill-rule:nonzero;stroke:#c8b7b7;stroke-width:1.5;stroke-miterlimit:4;stroke-opacity:1;stroke-dasharray:none;stroke-dashoffset:0"
       id="path5215-93"
       sodipodi:cx="130"
       sodipodi:cy="212.36218"
       sodipodi:rx="10"
       sodipodi:ry="10"
       d="m 140,212.36218 c 0,5.52285 -4.47715,10 -10,10 -5.52285,0 -10,-4.47715 -10,-10 0,-5.52284 4.47715,-10 10,-10 5.52285,0 10,4.47716 10,10 z" />
    <path
       sodipodi:type="arc"
       style="opacity:0.98000004;fill:#afc6e9;fill-opacity:1;fill-rule:nonzero;stroke:#afc6e9;stroke-width:1.5;stroke-miterlimit:4;stroke-opacity:1;stroke-dasharray:none;stroke-dashoffset:0"
       id="path5785"
       sodipodi:cx="150"
       sodipodi:cy="232.36218"
       sodipodi:rx="10"
       sodipodi:ry="10"
       d="m 160,232.36218 c 0,5.52285 -4.47715,10 -10,10 -5.52285,0 -10,-4.47715 -10,-10 0,-5.52284 4.47715,-10 10,-10 5.52285,0 10,4.47716 10,10 z" />
    <path
       transform="translate(10,70)"
       sodipodi:type="arc"
       style="opacity:0.98000004;fill:#afc6e9;fill-opacity:1;fill-rule:nonzero;stroke:#afc6e9;stroke-width:1.5;stroke-miterlimit:4;stroke-opacity:1;stroke-dasharray:none;stroke-dashoffset:0"
       id="path5785-5"
       sodipodi:cx="150"
       sodipodi:cy="232.36218"
       sodipodi:rx="10"
       sodipodi:ry="10"
       d="m 160,232.36218 c 0,5.52285 -4.47715,10 -10,10 -5.52285,0 -10,-4.47715 -10,-10 0,-5.52284 4.47715,-10 10,-10 5.52285,0 10,4.47716 10,10 z" />
    <path
       transform="translate(-50,10)"
       sodipodi:type="arc"
       style="opacity:0.98000004;fill:#afc6e9;fill-opacity:1;fill-rule:nonzero;stroke:#afc6e9;stroke-width:1.5;stroke-miterlimit:4;stroke-opacity:1;stroke-dasharray:none;stroke-dashoffset:0"
       id="path5785-4"
       sodipodi:cx="150"
       sodipodi:cy="232.36218"
       sodipodi:rx="10"
       sodipodi:ry="10"
       d="m 160,232.36218 c 0,5.52285 -4.47715,10 -10,10 -5.52285,0 -10,-4.47715 -10,-10 0,-5.52284 4.47715,-10 10,-10 5.52285,0 10,4.47716 10,10 z" />
    <path
       transform="translate(-40,-20)"
       sodipodi:type="arc"
       style="opacity:0.98000004;fill:#afc6e9;fill-opacity:1;fill-rule:nonzero;stroke:#afc6e9;stroke-width:1.5;stroke-miterlimit:4;stroke-opacity:1;stroke-dasharray:none;stroke-dashoffset:0"
       id="path5785-49"
       sodipodi:cx="150"
       sodipodi:cy="232.36218"
       sodipodi:rx="10"
       sodipodi:ry="10"
       d="m 160,232.36218 c 0,5.52285 -4.47715,10 -10,10 -5.52285,0 -10,-4.47715 -10,-10 0,-5.52284 4.47715,-10 10,-10 5.52285,0 10,4.47716 10,10 z" />
    <path
       transform="translate(20,40)"
       sodipodi:type="arc"
       style="opacity:0.98000004;fill:#afc6e9;fill-opacity:1;fill-rule:nonzero;stroke:#afc6e9;stroke-width:1.5;stroke-miterlimit:4;stroke-opacity:1;stroke-dasharray:none;stroke-dashoffset:0"
       id="path5785-1"
       sodipodi:cx="150"
       sodipodi:cy="232.36218"
       sodipodi:rx="10"
       sodipodi:ry="10"
       d="m 160,232.36218 c 0,5.52285 -4.47715,10 -10,10 -5.52285,0 -10,-4.47715 -10,-10 0,-5.52284 4.47715,-10 10,-10 5.52285,0 10,4.47716 10,10 z" />
    <path
       transform="translate(-90,50)"
       sodipodi:type="arc"
       style="opacity:0.98000004;fill:#afc6e9;fill-opacity:1;fill-rule:nonzero;stroke:#afc6e9;stroke-width:1.5;stroke-miterlimit:4;stroke-opacity:1;stroke-dasharray:none;stroke-dashoffset:0"
       id="path5785-41"
       sodipodi:cx="150"
       sodipodi:cy="232.36218"
       sodipodi:rx="10"
       sodipodi:ry="10"
       d="m 160,232.36218 c 0,5.52285 -4.47715,10 -10,10 -5.52285,0 -10,-4.47715 -10,-10 0,-5.52284 4.47715,-10 10,-10 5.52285,0 10,4.47716 10,10 z" />
    <path
       transform="translate(122,0)"
       sodipodi:type="arc"
       style="opacity:0.98000004;fill:#afc6e9;fill-opacity:1;fill-rule:nonzero;stroke:#afc6e9;stroke-width:1.5;stroke-miterlimit:4;stroke-opacity:1;stroke-dasharray:none;stroke-dashoffset:0"
       id="path5785-8"
       sodipodi:cx="150"
       sodipodi:cy="232.36218"
       sodipodi:rx="10"
       sodipodi:ry="10"
       d="m 160,232.36218 c 0,5.52285 -4.47715,10 -10,10 -5.52285,0 -10,-4.47715 -10,-10 0,-5.52284 4.47715,-10 10,-10 5.52285,0 10,4.47716 10,10 z" />
    <path
       transform="translate(102,20)"
       sodipodi:type="arc"
       style="opacity:0.98000004;fill:#afc6e9;fill-opacity:1;fill-rule:nonzero;stroke:#afc6e9;stroke-width:1.5;stroke-miterlimit:4;stroke-opacity:1;stroke-dasharray:none;stroke-dashoffset:0"
       id="path5785-6"
       sodipodi:cx="150"
       sodipodi:cy="232.36218"
       sodipodi:rx="10"
       sodipodi:ry="10"
       d="m 160,232.36218 c 0,5.52285 -4.47715,10 -10,10 -5.52285,0 -10,-4.47715 -10,-10 0,-5.52284 4.47715,-10 10,-10 5.52285,0 10,4.47716 10,10 z" />
    <path
       transform="translate(142,50)"
       sodipodi:type="arc"
       style="opacity:0.98000004;fill:#afc6e9;fill-opacity:1;fill-rule:nonzero;stroke:#afc6e9;stroke-width:1.5;stroke-miterlimit:4;stroke-opacity:1;stroke-dasharray:none;stroke-dashoffset:0"
       id="path5785-3"
       sodipodi:cx="150"
       sodipodi:cy="232.36218"
       sodipodi:rx="10"
       sodipodi:ry="10"
       d="m 160,232.36218 c 0,5.52285 -4.47715,10 -10,10 -5.52285,0 -10,-4.47715 -10,-10 0,-5.52284 4.47715,-10 10,-10 5.52285,0 10,4.47716 10,10 z" />
    <path
       transform="translate(46,60)"
       sodipodi:type="arc"
       style="opacity:0.98000004;fill:#afc6e9;fill-opacity:1;fill-rule:nonzero;stroke:#afc6e9;stroke-width:1.5;stroke-miterlimit:4;stroke-opacity:1;stroke-dasharray:none;stroke-dashoffset:0"
       id="path5785-33"
       sodipodi:cx="150"
       sodipodi:cy="232.36218"
       sodipodi:rx="10"
       sodipodi:ry="10"
       d="m 160,232.36218 c 0,5.52285 -4.47715,10 -10,10 -5.52285,0 -10,-4.47715 -10,-10 0,-5.52284 4.47715,-10 10,-10 5.52285,0 10,4.47716 10,10 z" />
    <path
       transform="translate(82,10)"
       sodipodi:type="arc"
       style="opacity:0.98000004;fill:#afc6e9;fill-opacity:1;fill-rule:nonzero;stroke:#afc6e9;stroke-width:1.5;stroke-miterlimit:4;stroke-opacity:1;stroke-dasharray:none;stroke-dashoffset:0"
       id="path5785-9"
       sodipodi:cx="150"
       sodipodi:cy="232.36218"
       sodipodi:rx="10"
       sodipodi:ry="10"
       d="m 160,232.36218 c 0,5.52285 -4.47715,10 -10,10 -5.52285,0 -10,-4.47715 -10,-10 0,-5.52284 4.47715,-10 10,-10 5.52285,0 10,4.47716 10,10 z" />
    <path
       transform="translate(102,50)"
       sodipodi:type="arc"
       style="opacity:0.98000004;fill:#afc6e9;fill-opacity:1;fill-rule:nonzero;stroke:#afc6e9;stroke-width:1.5;stroke-miterlimit:4;stroke-opacity:1;stroke-dasharray:none;stroke-dashoffset:0"
       id="path5785-87"
       sodipodi:cx="150"
       sodipodi:cy="232.36218"
       sodipodi:rx="10"
       sodipodi:ry="10"
       d="m 160,232.36218 c 0,5.52285 -4.47715,10 -10,10 -5.52285,0 -10,-4.47715 -10,-10 0,-5.52284 4.47715,-10 10,-10 5.52285,0 10,4.47716 10,10 z" />
    <path
       transform="translate(82,-30)"
       sodipodi:type="arc"
       style="opacity:0.98000004;fill:#afc6e9;fill-opacity:1;fill-rule:nonzero;stroke:#afc6e9;stroke-width:1.5;stroke-miterlimit:4;stroke-opacity:1;stroke-dasharray:none;stroke-dashoffset:0"
       id="path5785-337"
       sodipodi:cx="150"
       sodipodi:cy="232.36218"
       sodipodi:rx="10"
       sodipodi:ry="10"
       d="m 160,232.36218 c 0,5.52285 -4.47715,10 -10,10 -5.52285,0 -10,-4.47715 -10,-10 0,-5.52284 4.47715,-10 10,-10 5.52285,0 10,4.47716 10,10 z" />
    <path
       transform="translate(46,10)"
       sodipodi:type="arc"
       style="opacity:0.98000004;fill:#afc6e9;fill-opacity:1;fill-rule:nonzero;stroke:#afc6e9;stroke-width:1.5;stroke-miterlimit:4;stroke-opacity:1;stroke-dasharray:none;stroke-dashoffset:0"
       id="path5785-2"
       sodipodi:cx="150"
       sodipodi:cy="232.36218"
       sodipodi:rx="10"
       sodipodi:ry="10"
       d="m 160,232.36218 c 0,5.52285 -4.47715,10 -10,10 -5.52285,0 -10,-4.47715 -10,-10 0,-5.52284 4.47715,-10 10,-10 5.52285,0 10,4.47716 10,10 z" />
    <path
       transform="translate(10,20)"
       sodipodi:type="arc"
       style="opacity:0.98000004;fill:#c8b7b7;fill-opacity:1;fill-rule:nonzero;stroke:#c8b7b7;stroke-width:1.5;stroke-miterlimit:4;stroke-opacity:1;stroke-dasharray:none;stroke-dashoffset:0"
       id="path5215-93-6"
       sodipodi:cx="130"
       sodipodi:cy="212.36218"
       sodipodi:rx="10"
       sodipodi:ry="10"
       d="m 140,212.36218 c 0,5.52285 -4.47715,10 -10,10 -5.52285,0 -10,-4.47715 -10,-10 0,-5.52284 4.47715,-10 10,-10 5.52285,0 10,4.47716 10,10 z" />
    <path
       transform="translate(40,30)"
       sodipodi:type="arc"
       style="opacity:0.98000004;fill:#c8b7b7;fill-opacity:1;fill-rule:nonzero;stroke:#c8b7b7;stroke-width:1.5;stroke-miterlimit:4;stroke-opacity:1;stroke-dasharray:none;stroke-dashoffset:0"
       id="path5215-93-5"
       sodipodi:cx="130"
       sodipodi:cy="212.36218"
       sodipodi:rx="10"
       sodipodi:ry="10"
       d="m 140,212.36218 c 0,5.52285 -4.47715,10 -10,10 -5.52285,0 -10,-4.47715 -10,-10 0,-5.52284 4.47715,-10 10,-10 5.52285,0 10,4.47716 10,10 z" />
    <path
       transform="matrix(1,0,0,-1,20,414.72437)"
       sodipodi:type="arc"
       style="opacity:0.98000004;fill:#c8b7b7;fill-opacity:1;fill-rule:nonzero;stroke:#c8b7b7;stroke-width:1.5;stroke-miterlimit:4;stroke-opacity:1;stroke-dasharray:none;stroke-dashoffset:0"
       id="path5215-93-2"
       sodipodi:cx="130"
       sodipodi:cy="212.36218"
       sodipodi:rx="10"
       sodipodi:ry="10"
       d="m 140,212.36218 c 0,5.52285 -4.47715,10 -10,10 -5.52285,0 -10,-4.47715 -10,-10 0,-5.52284 4.47715,-10 10,-10 5.52285,0 10,4.47716 10,10 z" />
    <path
       transform="translate(-30,-10)"
       sodipodi:type="arc"
       style="opacity:0.98000004;fill:#c8b7b7;fill-opacity:1;fill-rule:nonzero;stroke:#c8b7b7;stroke-width:1.5;stroke-miterlimit:4;stroke-opacity:1;stroke-dasharray:none;stroke-dashoffset:0"
       id="path5215-93-65"
       sodipodi:cx="130"
       sodipodi:cy="212.36218"
       sodipodi:rx="10"
       sodipodi:ry="10"
       d="m 140,212.36218 c 0,5.52285 -4.47715,10 -10,10 -5.52285,0 -10,-4.47715 -10,-10 0,-5.52284 4.47715,-10 10,-10 5.52285,0 10,4.47716 10,10 z" />
    <path
       transform="translate(-50,90)"
       sodipodi:type="arc"
       style="opacity:0.98000004;fill:#c8b7b7;fill-opacity:1;fill-rule:nonzero;stroke:#c8b7b7;stroke-width:1.5;stroke-miterlimit:4;stroke-opacity:1;stroke-dasharray:none;stroke-dashoffset:0"
       id="path5215-93-8"
       sodipodi:cx="130"
       sodipodi:cy="212.36218"
       sodipodi:rx="10"
       sodipodi:ry="10"
       d="m 140,212.36218 c 0,5.52285 -4.47715,10 -10,10 -5.52285,0 -10,-4.47715 -10,-10 0,-5.52284 4.47715,-10 10,-10 5.52285,0 10,4.47716 10,10 z" />
    <path
       transform="translate(0,110)"
       sodipodi:type="arc"
       style="opacity:0.98000004;fill:#c8b7b7;fill-opacity:1;fill-rule:nonzero;stroke:#c8b7b7;stroke-width:1.5;stroke-miterlimit:4;stroke-opacity:1;stroke-dasharray:none;stroke-dashoffset:0"
       id="path5215-93-7"
       sodipodi:cx="130"
       sodipodi:cy="212.36218"
       sodipodi:rx="10"
       sodipodi:ry="10"
       d="m 140,212.36218 c 0,5.52285 -4.47715,10 -10,10 -5.52285,0 -10,-4.47715 -10,-10 0,-5.52284 4.47715,-10 10,-10 5.52285,0 10,4.47716 10,10 z" />
    <path
       transform="translate(-70,40)"
       sodipodi:type="arc"
       style="opacity:0.98000004;fill:#c8b7b7;fill-opacity:1;fill-rule:nonzero;stroke:#c8b7b7;stroke-width:1.5;stroke-miterlimit:4;stroke-opacity:1;stroke-dasharray:none;stroke-dashoffset:0"
       id="path5215-93-9"
       sodipodi:cx="130"
       sodipodi:cy="212.36218"
       sodipodi:rx="10"
       sodipodi:ry="10"
       d="m 140,212.36218 c 0,5.52285 -4.47715,10 -10,10 -5.52285,0 -10,-4.47715 -10,-10 0,-5.52284 4.47715,-10 10,-10 5.52285,0 10,4.47716 10,10 z" />
    <path
       transform="translate(10,70)"
       sodipodi:type="arc"
       style="opacity:0.98000004;fill:#c8b7b7;fill-opacity:1;fill-rule:nonzero;stroke:#c8b7b7;stroke-width:1.5;stroke-miterlimit:4;stroke-opacity:1;stroke-dasharray:none;stroke-dashoffset:0"
       id="path5215-93-60"
       sodipodi:cx="130"
       sodipodi:cy="212.36218"
       sodipodi:rx="10"
       sodipodi:ry="10"
       d="m 140,212.36218 c 0,5.52285 -4.47715,10 -10,10 -5.52285,0 -10,-4.47715 -10,-10 0,-5.52284 4.47715,-10 10,-10 5.52285,0 10,4.47716 10,10 z" />
    <path
       transform="translate(102,84)"
       sodipodi:type="arc"
       style="opacity:0.98000004;fill:#c8b7b7;fill-opacity:1;fill-rule:nonzero;stroke:#c8b7b7;stroke-width:1.5;stroke-miterlimit:4;stroke-opacity:1;stroke-dasharray:none;stroke-dashoffset:0"
       id="path5215-93-4"
       sodipodi:cx="130"
       sodipodi:cy="212.36218"
       sodipodi:rx="10"
       sodipodi:ry="10"
       d="m 140,212.36218 c 0,5.52285 -4.47715,10 -10,10 -5.52285,0 -10,-4.47715 -10,-10 0,-5.52284 4.47715,-10 10,-10 5.52285,0 10,4.47716 10,10 z" />
    <path
       transform="translate(66,60)"
       sodipodi:type="arc"
       style="opacity:0.98000004;fill:#c8b7b7;fill-opacity:1;fill-rule:nonzero;stroke:#c8b7b7;stroke-width:1.5;stroke-miterlimit:4;stroke-opacity:1;stroke-dasharray:none;stroke-dashoffset:0"
       id="path5215-93-1"
       sodipodi:cx="130"
       sodipodi:cy="212.36218"
       sodipodi:rx="10"
       sodipodi:ry="10"
       d="m 140,212.36218 c 0,5.52285 -4.47715,10 -10,10 -5.52285,0 -10,-4.47715 -10,-10 0,-5.52284 4.47715,-10 10,-10 5.52285,0 10,4.47716 10,10 z" />
    <path
       transform="translate(50,60)"
       sodipodi:type="arc"
       style="opacity:0.98000004;fill:#c8b7b7;fill-opacity:1;fill-rule:nonzero;stroke:#c8b7b7;stroke-width:1.5;stroke-miterlimit:4;stroke-opacity:1;stroke-dasharray:none;stroke-dashoffset:0"
       id="path5215-93-0"
       sodipodi:cx="130"
       sodipodi:cy="212.36218"
       sodipodi:rx="10"
       sodipodi:ry="10"
       d="m 140,212.36218 c 0,5.52285 -4.47715,10 -10,10 -5.52285,0 -10,-4.47715 -10,-10 0,-5.52284 4.47715,-10 10,-10 5.52285,0 10,4.47716 10,10 z" />
    <path
       transform="translate(70,10)"
       sodipodi:type="arc"
       style="opacity:0.98000004;fill:#c8b7b7;fill-opacity:1;fill-rule:nonzero;stroke:#c8b7b7;stroke-width:1.5;stroke-miterlimit:4;stroke-opacity:1;stroke-dasharray:none;stroke-dashoffset:0"
       id="path5215-93-48"
       sodipodi:cx="130"
       sodipodi:cy="212.36218"
       sodipodi:rx="10"
       sodipodi:ry="10"
       d="m 140,212.36218 c 0,5.52285 -4.47715,10 -10,10 -5.52285,0 -10,-4.47715 -10,-10 0,-5.52284 4.47715,-10 10,-10 5.52285,0 10,4.47716 10,10 z" />
    <path
       transform="translate(102,40)"
       sodipodi:type="arc"
       style="opacity:0.98000004;fill:#c8b7b7;fill-opacity:1;fill-rule:nonzero;stroke:#c8b7b7;stroke-width:1.5;stroke-miterlimit:4;stroke-opacity:1;stroke-dasharray:none;stroke-dashoffset:0"
       id="path5215-93-70"
       sodipodi:cx="130"
       sodipodi:cy="212.36218"
       sodipodi:rx="10"
       sodipodi:ry="10"
       d="m 140,212.36218 c 0,5.52285 -4.47715,10 -10,10 -5.52285,0 -10,-4.47715 -10,-10 0,-5.52284 4.47715,-10 10,-10 5.52285,0 10,4.47716 10,10 z" />
    <path
       transform="translate(86,10)"
       sodipodi:type="arc"
       style="opacity:0.98000004;fill:#c8b7b7;fill-opacity:1;fill-rule:nonzero;stroke:#c8b7b7;stroke-width:1.5;stroke-miterlimit:4;stroke-opacity:1;stroke-dasharray:none;stroke-dashoffset:0"
       id="path5215-93-86"
       sodipodi:cx="130"
       sodipodi:cy="212.36218"
       sodipodi:rx="10"
       sodipodi:ry="10"
       d="m 140,212.36218 c 0,5.52285 -4.47715,10 -10,10 -5.52285,0 -10,-4.47715 -10,-10 0,-5.52284 4.47715,-10 10,-10 5.52285,0 10,4.47716 10,10 z" />
    <path
       transform="translate(134,16)"
       sodipodi:type="arc"
       style="opacity:0.98000004;fill:#c8b7b7;fill-opacity:1;fill-rule:nonzero;stroke:#c8b7b7;stroke-width:1.5;stroke-miterlimit:4;stroke-opacity:1;stroke-dasharray:none;stroke-dashoffset:0"
       id="path5215-93-24"
       sodipodi:cx="130"
       sodipodi:cy="212.36218"
       sodipodi:rx="10"
       sodipodi:ry="10"
       d="m 140,212.36218 c 0,5.52285 -4.47715,10 -10,10 -5.52285,0 -10,-4.47715 -10,-10 0,-5.52284 4.47715,-10 10,-10 5.52285,0 10,4.47716 10,10 z" />
    <path
       transform="translate(94,-20)"
       sodipodi:type="arc"
       style="opacity:0.98000004;fill:#c8b7b7;fill-opacity:1;fill-rule:nonzero;stroke:#c8b7b7;stroke-width:1.5;stroke-miterlimit:4;stroke-opacity:1;stroke-dasharray:none;stroke-dashoffset:0"
       id="path5215-93-79"
       sodipodi:cx="130"
       sodipodi:cy="212.36218"
       sodipodi:rx="10"
       sodipodi:ry="10"
       d="m 140,212.36218 c 0,5.52285 -4.47715,10 -10,10 -5.52285,0 -10,-4.47715 -10,-10 0,-5.52284 4.47715,-10 10,-10 5.52285,0 10,4.47716 10,10 z" />
    <path
       transform="translate(-10,100)"
       sodipodi:type="arc"
       style="opacity:0.98000004;fill:#0044aa;fill-opacity:1;fill-rule:nonzero;stroke:#0044aa;stroke-width:1.5;stroke-miterlimit:4;stroke-opacity:1;stroke-dasharray:none;stroke-dashoffset:0"
       id="path5215-5-4"
       sodipodi:cx="130"
       sodipodi:cy="212.36218"
       sodipodi:rx="10"
       sodipodi:ry="10"
       d="m 140,212.36218 c 0,5.52285 -4.47715,10 -10,10 -5.52285,0 -10,-4.47715 -10,-10 0,-5.52284 4.47715,-10 10,-10 5.52285,0 10,4.47716 10,10 z" />
    <path
       transform="translate(40,80)"
       sodipodi:type="arc"
       style="opacity:0.98000004;fill:#0044aa;fill-opacity:1;fill-rule:nonzero;stroke:#0044aa;stroke-width:1.5;stroke-miterlimit:4;stroke-opacity:1;stroke-dasharray:none;stroke-dashoffset:0"
       id="path5215-5-9"
       sodipodi:cx="130"
       sodipodi:cy="212.36218"
       sodipodi:rx="10"
       sodipodi:ry="10"
       d="m 140,212.36218 c 0,5.52285 -4.47715,10 -10,10 -5.52285,0 -10,-4.47715 -10,-10 0,-5.52284 4.47715,-10 10,-10 5.52285,0 10,4.47716 10,10 z" />
    <path
       transform="translate(30,10)"
       sodipodi:type="arc"
       style="opacity:0.98000004;fill:#0044aa;fill-opacity:1;fill-rule:nonzero;stroke:#0044aa;stroke-width:1.5;stroke-miterlimit:4;stroke-opacity:1;stroke-dasharray:none;stroke-dashoffset:0"
       id="path5215-5-94"
       sodipodi:cx="130"
       sodipodi:cy="212.36218"
       sodipodi:rx="10"
       sodipodi:ry="10"
       d="m 140,212.36218 c 0,5.52285 -4.47715,10 -10,10 -5.52285,0 -10,-4.47715 -10,-10 0,-5.52284 4.47715,-10 10,-10 5.52285,0 10,4.47716 10,10 z" />
    <path
       transform="translate(-60,0)"
       sodipodi:type="arc"
       style="opacity:0.98000004;fill:#0044aa;fill-opacity:1;fill-rule:nonzero;stroke:#0044aa;stroke-width:1.5;stroke-miterlimit:4;stroke-opacity:1;stroke-dasharray:none;stroke-dashoffset:0"
       id="path5215-5-5"
       sodipodi:cx="130"
       sodipodi:cy="212.36218"
       sodipodi:rx="10"
       sodipodi:ry="10"
       d="m 140,212.36218 c 0,5.52285 -4.47715,10 -10,10 -5.52285,0 -10,-4.47715 -10,-10 0,-5.52284 4.47715,-10 10,-10 5.52285,0 10,4.47716 10,10 z" />
    <path
       transform="translate(-40,90)"
       sodipodi:type="arc"
       style="opacity:0.98000004;fill:#0044aa;fill-opacity:1;fill-rule:nonzero;stroke:#0044aa;stroke-width:1.5;stroke-miterlimit:4;stroke-opacity:1;stroke-dasharray:none;stroke-dashoffset:0"
       id="path5215-5-93"
       sodipodi:cx="130"
       sodipodi:cy="212.36218"
       sodipodi:rx="10"
       sodipodi:ry="10"
       d="m 140,212.36218 c 0,5.52285 -4.47715,10 -10,10 -5.52285,0 -10,-4.47715 -10,-10 0,-5.52284 4.47715,-10 10,-10 5.52285,0 10,4.47716 10,10 z" />
    <path
       transform="translate(-10,-20)"
       sodipodi:type="arc"
       style="opacity:0.98000004;fill:#0044aa;fill-opacity:1;fill-rule:nonzero;stroke:#0044aa;stroke-width:1.5;stroke-miterlimit:4;stroke-opacity:1;stroke-dasharray:none;stroke-dashoffset:0"
       id="path5215-5-57"
       sodipodi:cx="130"
       sodipodi:cy="212.36218"
       sodipodi:rx="10"
       sodipodi:ry="10"
       d="m 140,212.36218 c 0,5.52285 -4.47715,10 -10,10 -5.52285,0 -10,-4.47715 -10,-10 0,-5.52284 4.47715,-10 10,-10 5.52285,0 10,4.47716 10,10 z" />
    <path
       transform="translate(86,60)"
       sodipodi:type="arc"
       style="opacity:0.98000004;fill:#0044aa;fill-opacity:1;fill-rule:nonzero;stroke:#0044aa;stroke-width:1.5;stroke-miterlimit:4;stroke-opacity:1;stroke-dasharray:none;stroke-dashoffset:0"
       id="path5215-5-0"
       sodipodi:cx="130"
       sodipodi:cy="212.36218"
       sodipodi:rx="10"
       sodipodi:ry="10"
       d="m 140,212.36218 c 0,5.52285 -4.47715,10 -10,10 -5.52285,0 -10,-4.47715 -10,-10 0,-5.52284 4.47715,-10 10,-10 5.52285,0 10,4.47716 10,10 z" />
    <path
       transform="translate(60,40)"
       sodipodi:type="arc"
       style="opacity:0.98000004;fill:#0044aa;fill-opacity:1;fill-rule:nonzero;stroke:#0044aa;stroke-width:1.5;stroke-miterlimit:4;stroke-opacity:1;stroke-dasharray:none;stroke-dashoffset:0"
       id="path5215-5-8"
       sodipodi:cx="130"
       sodipodi:cy="212.36218"
       sodipodi:rx="10"
       sodipodi:ry="10"
       d="m 140,212.36218 c 0,5.52285 -4.47715,10 -10,10 -5.52285,0 -10,-4.47715 -10,-10 0,-5.52284 4.47715,-10 10,-10 5.52285,0 10,4.47716 10,10 z" />
    <path
       transform="translate(56,10)"
       sodipodi:type="arc"
       style="opacity:0.98000004;fill:#0044aa;fill-opacity:1;fill-rule:nonzero;stroke:#0044aa;stroke-width:1.5;stroke-miterlimit:4;stroke-opacity:1;stroke-dasharray:none;stroke-dashoffset:0"
       id="path5215-5-1"
       sodipodi:cx="130"
       sodipodi:cy="212.36218"
       sodipodi:rx="10"
       sodipodi:ry="10"
       d="m 140,212.36218 c 0,5.52285 -4.47715,10 -10,10 -5.52285,0 -10,-4.47715 -10,-10 0,-5.52284 4.47715,-10 10,-10 5.52285,0 10,4.47716 10,10 z" />
    <path
       transform="translate(76,-10)"
       sodipodi:type="arc"
       style="opacity:0.98000004;fill:#0044aa;fill-opacity:1;fill-rule:nonzero;stroke:#0044aa;stroke-width:1.5;stroke-miterlimit:4;stroke-opacity:1;stroke-dasharray:none;stroke-dashoffset:0"
       id="path5215-5-99"
       sodipodi:cx="130"
       sodipodi:cy="212.36218"
       sodipodi:rx="10"
       sodipodi:ry="10"
       d="m 140,212.36218 c 0,5.52285 -4.47715,10 -10,10 -5.52285,0 -10,-4.47715 -10,-10 0,-5.52284 4.47715,-10 10,-10 5.52285,0 10,4.47716 10,10 z" />
    <path
       transform="translate(108,18)"
       sodipodi:type="arc"
       style="opacity:0.98000004;fill:#0044aa;fill-opacity:1;fill-rule:nonzero;stroke:#0044aa;stroke-width:1.5;stroke-miterlimit:4;stroke-opacity:1;stroke-dasharray:none;stroke-dashoffset:0"
       id="path5215-5-7"
       sodipodi:cx="130"
       sodipodi:cy="212.36218"
       sodipodi:rx="10"
       sodipodi:ry="10"
       d="m 140,212.36218 c 0,5.52285 -4.47715,10 -10,10 -5.52285,0 -10,-4.47715 -10,-10 0,-5.52284 4.47715,-10 10,-10 5.52285,0 10,4.47716 10,10 z" />
    <path
       transform="translate(142,100)"
       sodipodi:type="arc"
       style="opacity:0.98000004;fill:#0044aa;fill-opacity:1;fill-rule:nonzero;stroke:#0044aa;stroke-width:1.5;stroke-miterlimit:4;stroke-opacity:1;stroke-dasharray:none;stroke-dashoffset:0"
       id="path5215-5-82"
       sodipodi:cx="130"
       sodipodi:cy="212.36218"
       sodipodi:rx="10"
       sodipodi:ry="10"
       d="m 140,212.36218 c 0,5.52285 -4.47715,10 -10,10 -5.52285,0 -10,-4.47715 -10,-10 0,-5.52284 4.47715,-10 10,-10 5.52285,0 10,4.47716 10,10 z" />
    <path
       transform="translate(76,90)"
       sodipodi:type="arc"
       style="opacity:0.98000004;fill:#0044aa;fill-opacity:1;fill-rule:nonzero;stroke:#0044aa;stroke-width:1.5;stroke-miterlimit:4;stroke-opacity:1;stroke-dasharray:none;stroke-dashoffset:0"
       id="path5215-5-53"
       sodipodi:cx="130"
       sodipodi:cy="212.36218"
       sodipodi:rx="10"
       sodipodi:ry="10"
       d="m 140,212.36218 c 0,5.52285 -4.47715,10 -10,10 -5.52285,0 -10,-4.47715 -10,-10 0,-5.52284 4.47715,-10 10,-10 5.52285,0 10,4.47716 10,10 z" />
    <path
       transform="translate(102,110)"
       sodipodi:type="arc"
       style="opacity:0.98000004;fill:#0044aa;fill-opacity:1;fill-rule:nonzero;stroke:#0044aa;stroke-width:1.5;stroke-miterlimit:4;stroke-opacity:1;stroke-dasharray:none;stroke-dashoffset:0"
       id="path5215-5-49"
       sodipodi:cx="130"
       sodipodi:cy="212.36218"
       sodipodi:rx="10"
       sodipodi:ry="10"
       d="m 140,212.36218 c 0,5.52285 -4.47715,10 -10,10 -5.52285,0 -10,-4.47715 -10,-10 0,-5.52284 4.47715,-10 10,-10 5.52285,0 10,4.47716 10,10 z" />
    <path
       transform="translate(172,48)"
       sodipodi:type="arc"
       style="opacity:0.98000004;fill:#0044aa;fill-opacity:1;fill-rule:nonzero;stroke:#0044aa;stroke-width:1.5;stroke-miterlimit:4;stroke-opacity:1;stroke-dasharray:none;stroke-dashoffset:0"
       id="path5215-5-02"
       sodipodi:cx="130"
       sodipodi:cy="212.36218"
       sodipodi:rx="10"
       sodipodi:ry="10"
       d="m 140,212.36218 c 0,5.52285 -4.47715,10 -10,10 -5.52285,0 -10,-4.47715 -10,-10 0,-5.52284 4.47715,-10 10,-10 5.52285,0 10,4.47716 10,10 z" />
    <path
       transform="translate(60,70)"
       sodipodi:type="arc"
       style="opacity:0.98000004;fill:#0044aa;fill-opacity:1;fill-rule:nonzero;stroke:#0044aa;stroke-width:1.5;stroke-miterlimit:4;stroke-opacity:1;stroke-dasharray:none;stroke-dashoffset:0"
       id="path5215-5-01"
       sodipodi:cx="130"
       sodipodi:cy="212.36218"
       sodipodi:rx="10"
       sodipodi:ry="10"
       d="m 140,212.36218 c 0,5.52285 -4.47715,10 -10,10 -5.52285,0 -10,-4.47715 -10,-10 0,-5.52284 4.47715,-10 10,-10 5.52285,0 10,4.47716 10,10 z" />
    <path
       transform="translate(122,0)"
       sodipodi:type="arc"
       style="opacity:0.98000004;fill:#0044aa;fill-opacity:1;fill-rule:nonzero;stroke:#0044aa;stroke-width:1.5;stroke-miterlimit:4;stroke-opacity:1;stroke-dasharray:none;stroke-dashoffset:0"
       id="path5215-5-96"
       sodipodi:cx="130"
       sodipodi:cy="212.36218"
       sodipodi:rx="10"
       sodipodi:ry="10"
       d="m 140,212.36218 c 0,5.52285 -4.47715,10 -10,10 -5.52285,0 -10,-4.47715 -10,-10 0,-5.52284 4.47715,-10 10,-10 5.52285,0 10,4.47716 10,10 z" />
    <path
       transform="translate(142,40)"
       sodipodi:type="arc"
       style="opacity:0.98000004;fill:#0044aa;fill-opacity:1;fill-rule:nonzero;stroke:#0044aa;stroke-width:1.5;stroke-miterlimit:4;stroke-opacity:1;stroke-dasharray:none;stroke-dashoffset:0"
       id="path5215-5-2"
       sodipodi:cx="130"
       sodipodi:cy="212.36218"
       sodipodi:rx="10"
       sodipodi:ry="10"
       d="m 140,212.36218 c 0,5.52285 -4.47715,10 -10,10 -5.52285,0 -10,-4.47715 -10,-10 0,-5.52284 4.47715,-10 10,-10 5.52285,0 10,4.47716 10,10 z" />
    <path
       transform="translate(152,4.7656249e-6)"
       sodipodi:type="arc"
       style="opacity:0.98000004;fill:#0044aa;fill-opacity:1;fill-rule:nonzero;stroke:#0044aa;stroke-width:1.5;stroke-miterlimit:4;stroke-opacity:1;stroke-dasharray:none;stroke-dashoffset:0"
       id="path5215-5-12"
       sodipodi:cx="130"
       sodipodi:cy="212.36218"
       sodipodi:rx="10"
       sodipodi:ry="10"
       d="m 140,212.36218 c 0,5.52285 -4.47715,10 -10,10 -5.52285,0 -10,-4.47715 -10,-10 0,-5.52284 4.47715,-10 10,-10 5.52285,0 10,4.47716 10,10 z" />
    <path
       transform="translate(122,60)"
       sodipodi:type="arc"
       style="opacity:0.98000004;fill:#0044aa;fill-opacity:1;fill-rule:nonzero;stroke:#0044aa;stroke-width:1.5;stroke-miterlimit:4;stroke-opacity:1;stroke-dasharray:none;stroke-dashoffset:0"
       id="path5215-5-07"
       sodipodi:cx="130"
       sodipodi:cy="212.36218"
       sodipodi:rx="10"
       sodipodi:ry="10"
       d="m 140,212.36218 c 0,5.52285 -4.47715,10 -10,10 -5.52285,0 -10,-4.47715 -10,-10 0,-5.52284 4.47715,-10 10,-10 5.52285,0 10,4.47716 10,10 z" />
    <path
       transform="translate(-20,30)"
       sodipodi:type="arc"
       style="opacity:0.98000004;fill:#ac9393;fill-opacity:1;fill-rule:nonzero;stroke:#ac9393;stroke-width:1.5;stroke-miterlimit:4;stroke-opacity:1;stroke-dasharray:none;stroke-dashoffset:0"
       id="path5215-9-3"
       sodipodi:cx="130"
       sodipodi:cy="212.36218"
       sodipodi:rx="10"
       sodipodi:ry="10"
       d="m 140,212.36218 c 0,5.52285 -4.47715,10 -10,10 -5.52285,0 -10,-4.47715 -10,-10 0,-5.52284 4.47715,-10 10,-10 5.52285,0 10,4.47716 10,10 z" />
    <path
       transform="translate(40,40)"
       sodipodi:type="arc"
       style="opacity:0.98000004;fill:#ac9393;fill-opacity:1;fill-rule:nonzero;stroke:#ac9393;stroke-width:1.5;stroke-miterlimit:4;stroke-opacity:1;stroke-dasharray:none;stroke-dashoffset:0"
       id="path5215-9-1"
       sodipodi:cx="130"
       sodipodi:cy="212.36218"
       sodipodi:rx="10"
       sodipodi:ry="10"
       d="m 140,212.36218 c 0,5.52285 -4.47715,10 -10,10 -5.52285,0 -10,-4.47715 -10,-10 0,-5.52284 4.47715,-10 10,-10 5.52285,0 10,4.47716 10,10 z" />
    <path
       transform="translate(-10,50)"
       sodipodi:type="arc"
       style="opacity:0.98000004;fill:#ac9393;fill-opacity:1;fill-rule:nonzero;stroke:#ac9393;stroke-width:1.5;stroke-miterlimit:4;stroke-opacity:1;stroke-dasharray:none;stroke-dashoffset:0"
       id="path5215-9-19"
       sodipodi:cx="130"
       sodipodi:cy="212.36218"
       sodipodi:rx="10"
       sodipodi:ry="10"
       d="m 140,212.36218 c 0,5.52285 -4.47715,10 -10,10 -5.52285,0 -10,-4.47715 -10,-10 0,-5.52284 4.47715,-10 10,-10 5.52285,0 10,4.47716 10,10 z" />
    <path
       transform="translate(0,100)"
       sodipodi:type="arc"
       style="opacity:0.98000004;fill:#ac9393;fill-opacity:1;fill-rule:nonzero;stroke:#ac9393;stroke-width:1.5;stroke-miterlimit:4;stroke-opacity:1;stroke-dasharray:none;stroke-dashoffset:0"
       id="path5215-9-0"
       sodipodi:cx="130"
       sodipodi:cy="212.36218"
       sodipodi:rx="10"
       sodipodi:ry="10"
       d="m 140,212.36218 c 0,5.52285 -4.47715,10 -10,10 -5.52285,0 -10,-4.47715 -10,-10 0,-5.52284 4.47715,-10 10,-10 5.52285,0 10,4.47716 10,10 z" />
    <path
       transform="translate(10,80)"
       sodipodi:type="arc"
       style="opacity:0.98000004;fill:#ac9393;fill-opacity:1;fill-rule:nonzero;stroke:#ac9393;stroke-width:1.5;stroke-miterlimit:4;stroke-opacity:1;stroke-dasharray:none;stroke-dashoffset:0"
       id="path5215-9-5"
       sodipodi:cx="130"
       sodipodi:cy="212.36218"
       sodipodi:rx="10"
       sodipodi:ry="10"
       d="m 140,212.36218 c 0,5.52285 -4.47715,10 -10,10 -5.52285,0 -10,-4.47715 -10,-10 0,-5.52284 4.47715,-10 10,-10 5.52285,0 10,4.47716 10,10 z" />
    <path
       transform="translate(122,90)"
       sodipodi:type="arc"
       style="opacity:0.98000004;fill:#ac9393;fill-opacity:1;fill-rule:nonzero;stroke:#ac9393;stroke-width:1.5;stroke-miterlimit:4;stroke-opacity:1;stroke-dasharray:none;stroke-dashoffset:0"
       id="path5215-9-6"
       sodipodi:cx="130"
       sodipodi:cy="212.36218"
       sodipodi:rx="10"
       sodipodi:ry="10"
       d="m 140,212.36218 c 0,5.52285 -4.47715,10 -10,10 -5.52285,0 -10,-4.47715 -10,-10 0,-5.52284 4.47715,-10 10,-10 5.52285,0 10,4.47716 10,10 z" />
    <path
       transform="translate(76,40)"
       sodipodi:type="arc"
       style="opacity:0.98000004;fill:#ac9393;fill-opacity:1;fill-rule:nonzero;stroke:#ac9393;stroke-width:1.5;stroke-miterlimit:4;stroke-opacity:1;stroke-dasharray:none;stroke-dashoffset:0"
       id="path5215-9-7"
       sodipodi:cx="130"
       sodipodi:cy="212.36218"
       sodipodi:rx="10"
       sodipodi:ry="10"
       d="m 140,212.36218 c 0,5.52285 -4.47715,10 -10,10 -5.52285,0 -10,-4.47715 -10,-10 0,-5.52284 4.47715,-10 10,-10 5.52285,0 10,4.47716 10,10 z" />
    <path
       transform="translate(166,22)"
       sodipodi:type="arc"
       style="opacity:0.98000004;fill:#ac9393;fill-opacity:1;fill-rule:nonzero;stroke:#ac9393;stroke-width:1.5;stroke-miterlimit:4;stroke-opacity:1;stroke-dasharray:none;stroke-dashoffset:0"
       id="path5215-9-74"
       sodipodi:cx="130"
       sodipodi:cy="212.36218"
       sodipodi:rx="10"
       sodipodi:ry="10"
       d="m 140,212.36218 c 0,5.52285 -4.47715,10 -10,10 -5.52285,0 -10,-4.47715 -10,-10 0,-5.52284 4.47715,-10 10,-10 5.52285,0 10,4.47716 10,10 z" />
    <path
       transform="translate(142,70)"
       sodipodi:type="arc"
       style="opacity:0.98000004;fill:#ac9393;fill-opacity:1;fill-rule:nonzero;stroke:#ac9393;stroke-width:1.5;stroke-miterlimit:4;stroke-opacity:1;stroke-dasharray:none;stroke-dashoffset:0"
       id="path5215-9-06"
       sodipodi:cx="130"
       sodipodi:cy="212.36218"
       sodipodi:rx="10"
       sodipodi:ry="10"
       d="m 140,212.36218 c 0,5.52285 -4.47715,10 -10,10 -5.52285,0 -10,-4.47715 -10,-10 0,-5.52284 4.47715,-10 10,-10 5.52285,0 10,4.47716 10,10 z" />
    <path
       transform="translate(162,80)"
       sodipodi:type="arc"
       style="opacity:0.98000004;fill:#ac9393;fill-opacity:1;fill-rule:nonzero;stroke:#ac9393;stroke-width:1.5;stroke-miterlimit:4;stroke-opacity:1;stroke-dasharray:none;stroke-dashoffset:0"
       id="path5215-9-4"
       sodipodi:cx="130"
       sodipodi:cy="212.36218"
       sodipodi:rx="10"
       sodipodi:ry="10"
       d="m 140,212.36218 c 0,5.52285 -4.47715,10 -10,10 -5.52285,0 -10,-4.47715 -10,-10 0,-5.52284 4.47715,-10 10,-10 5.52285,0 10,4.47716 10,10 z" />
    <path
       transform="translate(124,-18)"
       sodipodi:type="arc"
       style="opacity:0.98000004;fill:#ac9393;fill-opacity:1;fill-rule:nonzero;stroke:#ac9393;stroke-width:1.5;stroke-miterlimit:4;stroke-opacity:1;stroke-dasharray:none;stroke-dashoffset:0"
       id="path5215-9-748"
       sodipodi:cx="130"
       sodipodi:cy="212.36218"
       sodipodi:rx="10"
       sodipodi:ry="10"
       d="m 140,212.36218 c 0,5.52285 -4.47715,10 -10,10 -5.52285,0 -10,-4.47715 -10,-10 0,-5.52284 4.47715,-10 10,-10 5.52285,0 10,4.47716 10,10 z" />
    <path
       transform="translate(-70,30)"
       sodipodi:type="arc"
       style="opacity:0.98000004;fill:#ac9393;fill-opacity:1;fill-rule:nonzero;stroke:#ac9393;stroke-width:1.5;stroke-miterlimit:4;stroke-opacity:1;stroke-dasharray:none;stroke-dashoffset:0"
       id="path5215-9-58"
       sodipodi:cx="130"
       sodipodi:cy="212.36218"
       sodipodi:rx="10"
       sodipodi:ry="10"
       d="m 140,212.36218 c 0,5.52285 -4.47715,10 -10,10 -5.52285,0 -10,-4.47715 -10,-10 0,-5.52284 4.47715,-10 10,-10 5.52285,0 10,4.47716 10,10 z" />
    <path
       transform="translate(-60,50)"
       sodipodi:type="arc"
       style="opacity:0.98000004;fill:#ac9393;fill-opacity:1;fill-rule:nonzero;stroke:#ac9393;stroke-width:1.5;stroke-miterlimit:4;stroke-opacity:1;stroke-dasharray:none;stroke-dashoffset:0"
       id="path5215-9-2"
       sodipodi:cx="130"
       sodipodi:cy="212.36218"
       sodipodi:rx="10"
       sodipodi:ry="10"
       d="m 140,212.36218 c 0,5.52285 -4.47715,10 -10,10 -5.52285,0 -10,-4.47715 -10,-10 0,-5.52284 4.47715,-10 10,-10 5.52285,0 10,4.47716 10,10 z" />
    <path
       transform="translate(40,0)"
       sodipodi:type="arc"
       style="opacity:0.98000004;fill:#ac9393;fill-opacity:1;fill-rule:nonzero;stroke:#ac9393;stroke-width:1.5;stroke-miterlimit:4;stroke-opacity:1;stroke-dasharray:none;stroke-dashoffset:0"
       id="path5215-9-60"
       sodipodi:cx="130"
       sodipodi:cy="212.36218"
       sodipodi:rx="10"
       sodipodi:ry="10"
       d="m 140,212.36218 c 0,5.52285 -4.47715,10 -10,10 -5.52285,0 -10,-4.47715 -10,-10 0,-5.52284 4.47715,-10 10,-10 5.52285,0 10,4.47716 10,10 z" />
    <path
       sodipodi:type="arc"
       style="opacity:0.98000004;fill:none;stroke:#000000;stroke-width:1.5;stroke-miterlimit:4;stroke-opacity:1;stroke-dasharray:none;stroke-dashoffset:0"
       id="path3517"
       sodipodi:cx="125"
       sodipodi:cy="247.36218"
       sodipodi:rx="75"
       sodipodi:ry="75"
       d="m 200,247.36218 c 0,41.42136 -33.57864,75 -75,75 -41.421356,0 -75,-33.57864 -75,-75 0,-41.42135 33.578644,-75 75,-75 41.42136,0 75,33.57865 75,75 z"
       transform="translate(0,8)" />
    <path
       sodipodi:type="arc"
       style="opacity:0.98000004;fill:none;stroke:#000000;stroke-width:1.5;stroke-miterlimit:4;stroke-opacity:1;stroke-dasharray:none;stroke-dashoffset:0"
       id="path3517-8"
       sodipodi:cx="125"
       sodipodi:cy="247.36218"
       sodipodi:rx="75"
       sodipodi:ry="75"
       d="m 200,247.36218 c 0,41.42136 -33.57864,75 -75,75 -41.421356,0 -75,-33.57864 -75,-75 0,-41.42135 33.578644,-75 75,-75 41.42136,0 75,33.57865 75,75 z"
       transform="translate(110,8)" />
    <text
       xml:space="preserve"
       style="font-size:20px;font-style:normal;font-weight:normal;line-height:125%;letter-spacing:0px;word-spacing:0px;fill:#000000;fill-opacity:1;stroke:none;font-family:Bitstream Vera Sans"
       x="2.8571434"
       y="377.93362"
       id="text3537"
       sodipodi:linespacing="125%"><tspan
         sodipodi:role="line"
         id="tspan3539"
         x="2.8571434"
         y="377.93362">spectators</tspan></text>
    <text
       xml:space="preserve"
       style="font-size:20px;font-style:normal;font-weight:normal;line-height:125%;letter-spacing:0px;word-spacing:0px;fill:#000000;fill-opacity:1;stroke:none;font-family:Bitstream Vera Sans"
       x="195"
       y="160.21933"
       id="text3541"
       sodipodi:linespacing="125%"><tspan
         sodipodi:role="line"
         id="tspan3543"
         x="195"
         y="160.21933">participants</tspan></text>
    <path
       style="fill:none;stroke:#000000;stroke-width:2;stroke-linecap:butt;stroke-linejoin:miter;stroke-miterlimit:4;stroke-opacity:1;stroke-dasharray:none;marker-start:url(#Arrow1Mstart)"
       d="m 180,232.36218 20,-60"
       id="path3545"
       inkscape:connector-curvature="0" />
    <path
       style="fill:none;stroke:#000000;stroke-width:2;stroke-linecap:butt;stroke-linejoin:miter;stroke-miterlimit:2;stroke-opacity:1;stroke-dasharray:none;marker-start:url(#Arrow1Mstart);marker-end:url(#Arrow1Mend)"
       d="m 110,292.36218 -10,70 130,-70"
       id="path3547"
       inkscape:connector-curvature="0"
       sodipodi:nodetypes="ccc" />
  </g>
</svg>
